<svg width="1440" height="417" viewBox="0 0 1440 417" fill="none" xmlns="http://www.w3.org/2000/svg">
<g clip-path="url(#clip0_2309_7508)">
<rect width="1440" height="417" fill="url(#paint0_linear_2309_7508)"/>
<g opacity="0.2">
<path fill-rule="evenodd" clip-rule="evenodd" d="M1397.62 355.966C1397.59 356.074 1397.56 356.182 1397.53 356.289C1397.27 357.233 1396.99 358.175 1396.72 359.115C1396.52 359.804 1396.39 360.493 1396.26 361.175C1396.06 362.196 1395.87 363.2 1395.46 364.158C1395.34 364.444 1395.2 364.725 1395.04 365.002C1395 365.081 1394.95 365.159 1394.9 365.237C1394.29 366.415 1392.17 367.828 1390.95 367.828C1389.74 367.828 1387.61 366.179 1387.61 365.002C1387.49 363.835 1387.46 362.627 1387.48 361.413C1387.49 361.099 1387.49 360.784 1387.5 360.47C1387.51 360.029 1387.53 359.588 1387.54 359.149C1387.58 358.256 1387.61 357.37 1387.61 356.505C1387.61 356.485 1387.61 356.466 1387.61 356.446C1387.61 356.394 1387.61 356.341 1387.61 356.289C1387.56 355.644 1387.51 354.998 1387.45 354.353C1387.19 351.231 1386.9 348.109 1386.4 344.987C1386.36 344.788 1386.32 344.591 1386.28 344.394C1384.66 336.881 1380.43 330.496 1372.73 325.678C1372.14 325.303 1371.55 324.928 1370.96 324.553C1365.65 321.175 1360.37 317.819 1354.29 315.588C1353.1 315.149 1351.87 314.753 1350.6 314.41C1349.13 314.009 1347.6 313.679 1346.02 313.433C1345.79 313.398 1345.56 313.352 1345.32 313.297C1345.21 313.271 1345.1 313.243 1344.99 313.213C1343.74 312.877 1342.48 312.285 1341.77 311.549C1341.64 311.404 1341.51 311.255 1341.38 311.101C1340.2 309.755 1338.76 308.108 1339.03 306.84C1339.34 305.427 1341.77 303.543 1343.89 303.308C1345.19 303.122 1346.45 302.912 1347.68 302.679C1349.06 302.419 1350.4 302.131 1351.7 301.814C1351.74 301.806 1351.77 301.797 1351.8 301.789C1351.81 301.787 1351.82 301.785 1351.83 301.783C1352.8 301.545 1353.75 301.29 1354.68 301.02C1373.36 295.614 1383.81 284.073 1390.47 269.619C1391.18 268.086 1391.84 266.52 1392.47 264.925C1392.7 264.32 1392.92 263.706 1393.13 263.087C1393.14 263.066 1393.14 263.046 1393.15 263.025C1394.01 260.441 1394.65 257.748 1395.26 255.055C1395.35 254.696 1395.43 254.337 1395.51 253.978C1395.54 253.825 1395.58 253.671 1395.61 253.518C1395.73 253.017 1395.84 252.518 1395.96 252.019C1396.11 251.373 1396.26 250.73 1396.42 250.09C1396.59 249.776 1396.72 249.461 1396.82 249.148C1396.88 248.966 1396.93 248.785 1396.98 248.605C1397.05 248.297 1397.11 247.992 1397.17 247.691C1397.32 246.88 1397.47 246.1 1397.93 245.381C1398.84 244.203 1400.67 242.79 1401.88 243.026C1403.1 243.026 1404.61 244.674 1405.52 245.852C1405.98 246.555 1405.92 247.39 1405.87 248.258C1405.85 248.552 1405.83 248.85 1405.83 249.148C1405.8 249.574 1405.78 249.997 1405.75 250.419C1405.73 250.74 1405.71 251.061 1405.69 251.381C1405.67 251.705 1405.65 252.029 1405.63 252.353C1405.57 253.268 1405.51 254.178 1405.46 255.087C1405.43 255.52 1405.4 255.954 1405.38 256.387C1405.37 256.408 1405.37 256.429 1405.37 256.45C1405.22 258.863 1405.07 261.276 1404.92 263.748C1404.82 265.553 1404.68 267.358 1404.55 269.164C1404.54 269.304 1404.52 269.444 1404.51 269.584C1404.51 269.609 1404.51 269.633 1404.51 269.658C1404.42 270.786 1404.34 271.915 1404.27 273.044C1404.12 275.361 1404.01 277.678 1404.01 279.996C1403.73 288.158 1409.77 293.382 1417.75 296.917C1417.77 296.93 1417.8 296.942 1417.83 296.955C1418.57 297.281 1419.33 297.593 1420.1 297.892C1425.87 300.011 1432.24 301.188 1439.22 300.482C1440.47 300.343 1441.72 300.327 1442.98 300.385C1443.03 300.387 1443.09 300.39 1443.14 300.393C1444.26 300.45 1445.38 300.563 1446.51 300.7C1447.24 300.788 1447.97 300.886 1448.71 300.984C1449.88 301.14 1451.07 301.299 1452.28 301.424C1452.94 301.526 1453.6 301.629 1454.21 301.77C1454.3 301.79 1454.38 301.811 1454.47 301.832C1455.16 302.009 1455.77 302.245 1456.23 302.601C1457.44 303.778 1458.96 305.427 1458.96 306.604C1458.96 308.723 1456.23 308.959 1453.8 308.723C1453.05 308.679 1452.31 308.634 1451.58 308.588C1451.57 308.587 1451.55 308.586 1451.54 308.585C1451.42 308.577 1451.29 308.57 1451.17 308.562C1450.94 308.547 1450.72 308.532 1450.49 308.517C1448.67 308.396 1446.88 308.259 1445.05 308.082C1444.13 307.993 1443.2 307.894 1442.26 307.782C1441.51 307.708 1440.76 307.658 1440.02 307.628C1439.99 307.628 1439.97 307.627 1439.95 307.626C1433.55 307.382 1427.58 308.689 1421.62 310.372C1420.37 310.759 1419.12 311.305 1417.98 311.96C1416.34 312.901 1414.92 314.068 1414.03 315.317C1410.69 319.32 1407.35 323.323 1405.83 327.797C1403.81 333.545 1402.16 339.365 1400.57 345.177C1400.29 346.235 1400 347.293 1399.71 348.351C1399.07 350.73 1398.43 353.105 1397.76 355.471C1397.72 355.636 1397.67 355.801 1397.62 355.966ZM1392.15 324.507C1392.3 324.075 1392.45 323.644 1392.6 323.216C1394.99 316.242 1399.81 310.486 1402.78 306.939C1402.87 306.837 1402.95 306.737 1403.03 306.638C1403.38 306.186 1403.74 305.75 1404.11 305.33C1399.58 302.261 1395.26 298.12 1392.62 292.585C1390.35 295.346 1387.81 297.977 1384.98 300.432C1381.21 303.705 1377.03 306.555 1372.43 308.961C1374.53 310.216 1376.48 311.46 1378.27 312.607C1378.93 313.029 1379.57 313.438 1380.19 313.83C1385.04 316.867 1389.01 320.459 1392.15 324.507Z" fill="#81ADC8"/>
<path fill-rule="evenodd" clip-rule="evenodd" d="M1436.31 388.001C1436.08 388.832 1435.86 389.661 1435.63 390.488C1435.6 390.592 1435.57 390.697 1435.54 390.801C1435.44 391.161 1435.33 391.521 1435.23 391.88C1435.15 392.143 1435.1 392.407 1435.05 392.667C1434.97 393.057 1434.9 393.44 1434.75 393.806C1434.7 393.915 1434.65 394.023 1434.59 394.129C1434.57 394.159 1434.55 394.189 1434.53 394.219C1434.3 394.668 1433.49 395.208 1433.02 395.208C1432.56 395.208 1431.75 394.578 1431.75 394.129C1431.7 393.683 1431.69 393.221 1431.7 392.758C1431.7 392.638 1431.7 392.517 1431.71 392.397C1431.71 392.229 1431.72 392.061 1431.72 391.893C1431.73 391.552 1431.75 391.214 1431.75 390.883C1431.75 390.876 1431.75 390.868 1431.75 390.86C1431.75 390.84 1431.75 390.821 1431.75 390.801C1431.66 389.663 1431.56 388.526 1431.42 387.388C1431.38 387.087 1431.33 386.785 1431.28 386.483C1430.99 384.986 1430.43 383.603 1429.56 382.358C1428.71 381.134 1427.56 380.044 1426.07 379.108C1425.84 378.965 1425.61 378.822 1425.39 378.678C1424.48 378.1 1423.57 377.524 1422.64 376.987C1421.85 376.531 1421.03 376.103 1420.19 375.726C1418.86 375.137 1417.44 374.675 1415.86 374.431C1415.77 374.417 1415.68 374.4 1415.59 374.379C1415.55 374.369 1415.51 374.358 1415.47 374.347C1414.99 374.218 1414.51 373.992 1414.24 373.711C1414.19 373.656 1414.14 373.599 1414.09 373.54C1413.64 373.026 1413.09 372.397 1413.19 371.912C1413.31 371.373 1414.24 370.653 1415.05 370.563C1415.54 370.492 1416.03 370.412 1416.5 370.323C1417.05 370.219 1417.58 370.104 1418.1 369.976C1418.33 369.919 1418.56 369.859 1418.79 369.796C1419.42 369.624 1420.02 369.434 1420.61 369.227C1421.45 368.929 1422.24 368.595 1422.99 368.228C1425.95 366.774 1428.23 364.8 1430.02 362.459C1430.22 362.197 1430.41 361.93 1430.6 361.659C1430.66 361.577 1430.71 361.495 1430.77 361.413C1431.91 359.724 1432.83 357.871 1433.6 355.902C1433.69 355.671 1433.78 355.437 1433.86 355.2C1433.86 355.192 1433.86 355.184 1433.86 355.176C1433.9 355.051 1433.95 354.924 1433.98 354.798C1434.29 353.794 1434.53 352.755 1434.76 351.721C1434.78 351.662 1434.79 351.604 1434.8 351.545C1434.85 351.354 1434.89 351.163 1434.94 350.972C1434.99 350.726 1435.05 350.48 1435.11 350.236C1435.18 350.115 1435.23 349.995 1435.27 349.876C1435.29 349.806 1435.31 349.737 1435.32 349.668C1435.35 349.551 1435.38 349.434 1435.4 349.319C1435.46 349.009 1435.51 348.711 1435.69 348.437C1436.04 347.987 1436.73 347.447 1437.2 347.537C1437.66 347.537 1438.24 348.167 1438.59 348.617C1438.76 348.885 1438.74 349.204 1438.72 349.536C1438.71 349.648 1438.71 349.762 1438.71 349.876C1438.7 350.038 1438.69 350.2 1438.68 350.361C1438.67 350.484 1438.66 350.606 1438.65 350.729C1438.65 350.853 1438.64 350.976 1438.63 351.1C1438.61 351.449 1438.59 351.797 1438.56 352.144C1438.55 352.318 1438.54 352.491 1438.53 352.664C1438.47 353.574 1438.42 354.484 1438.36 355.416C1438.36 355.428 1438.36 355.44 1438.36 355.452C1438.32 356.142 1438.27 356.832 1438.22 357.521C1438.21 357.575 1438.21 357.628 1438.2 357.682C1438.2 357.691 1438.2 357.701 1438.2 357.71C1438.1 359.026 1438.01 360.342 1438.01 361.659C1437.98 362.576 1438.16 363.397 1438.5 364.132C1438.91 365.004 1439.55 365.757 1440.36 366.41C1441.15 367.05 1442.09 367.594 1443.12 368.062C1443.18 368.087 1443.23 368.112 1443.29 368.137C1443.57 368.261 1443.86 368.38 1444.16 368.494C1446.34 369.296 1448.75 369.745 1451.39 369.491C1451.41 369.489 1451.44 369.486 1451.46 369.484C1451.94 369.431 1452.42 369.425 1452.9 369.447C1452.92 369.448 1452.94 369.449 1452.96 369.45C1453.66 369.485 1454.36 369.579 1455.08 369.676C1455.53 369.735 1455.99 369.796 1456.45 369.844C1456.7 369.883 1456.95 369.922 1457.19 369.976C1457.22 369.983 1457.25 369.991 1457.28 369.999C1457.55 370.067 1457.78 370.157 1457.96 370.293C1458.42 370.743 1459 371.373 1459 371.822C1459 372.632 1457.96 372.722 1457.03 372.632C1456.74 372.615 1456.46 372.598 1456.18 372.58C1456.18 372.58 1456.17 372.579 1456.17 372.579C1456.12 372.576 1456.07 372.573 1456.03 372.57C1455.94 372.564 1455.85 372.559 1455.77 372.553C1454.72 372.483 1453.7 372.401 1452.62 372.272C1452.33 372.244 1452.05 372.225 1451.77 372.214C1451.76 372.213 1451.75 372.213 1451.74 372.213C1451.49 372.203 1451.25 372.2 1451.01 372.202C1448.84 372.221 1446.79 372.683 1444.74 373.261C1443.58 373.621 1442.42 374.341 1441.84 375.15C1441.76 375.24 1441.69 375.33 1441.61 375.42C1441.52 375.527 1441.43 375.634 1441.35 375.74C1441.3 375.802 1441.24 375.864 1441.19 375.926C1440.15 377.201 1439.19 378.497 1438.71 379.917C1438.51 380.465 1438.33 381.015 1438.15 381.566C1437.75 382.826 1437.38 384.093 1437.03 385.361C1437.01 385.43 1436.99 385.498 1436.97 385.567C1436.77 386.301 1436.57 387.035 1436.37 387.768C1436.35 387.846 1436.33 387.923 1436.31 388.001ZM1432.69 374.053C1433.23 373.175 1433.79 372.391 1434.3 371.726C1433.96 371.406 1433.64 371.068 1433.32 370.711C1433.05 370.967 1432.77 371.22 1432.48 371.469C1431.98 371.906 1431.46 372.324 1430.92 372.724C1431.55 373.144 1432.14 373.587 1432.69 374.053Z" fill="#CD4631"/>
<path fill-rule="evenodd" clip-rule="evenodd" d="M1367.48 404.469C1367.4 404.768 1367.32 405.066 1367.24 405.365C1367.09 405.926 1366.94 406.487 1366.78 407.046C1366.76 407.11 1366.74 407.175 1366.72 407.239C1366.66 407.462 1366.6 407.684 1366.53 407.906C1366.49 408.069 1366.45 408.231 1366.42 408.392C1366.38 408.633 1366.33 408.87 1366.24 409.097C1366.21 409.164 1366.17 409.23 1366.14 409.296C1366.13 409.314 1366.11 409.333 1366.1 409.351C1365.96 409.629 1365.46 409.963 1365.17 409.963C1364.88 409.963 1364.38 409.574 1364.38 409.296C1364.35 409.02 1364.35 408.735 1364.35 408.448C1364.35 408.374 1364.35 408.3 1364.36 408.226C1364.36 408.122 1364.36 408.018 1364.37 407.914C1364.37 407.703 1364.38 407.494 1364.38 407.29C1364.38 407.285 1364.38 407.28 1364.38 407.276C1364.38 407.264 1364.38 407.251 1364.38 407.239C1364.31 406.349 1364.24 405.46 1364.1 404.571C1364.06 404.408 1364.03 404.249 1363.99 404.091C1363.68 402.953 1363.11 401.933 1362.21 401.058C1361.83 400.682 1361.38 400.332 1360.87 400.012C1360.73 399.924 1360.59 399.835 1360.45 399.747C1360.27 399.633 1360.1 399.52 1359.92 399.408C1359.35 399.051 1358.78 398.703 1358.19 398.387C1357.09 397.805 1355.92 397.332 1354.56 397.122C1354.51 397.113 1354.45 397.103 1354.4 397.09C1354.37 397.083 1354.35 397.077 1354.32 397.07C1354.03 396.99 1353.73 396.851 1353.56 396.677C1353.53 396.643 1353.5 396.607 1353.47 396.571C1353.19 396.253 1352.85 395.864 1352.91 395.565C1352.99 395.232 1353.56 394.787 1354.06 394.731C1354.37 394.687 1354.67 394.638 1354.96 394.583C1355.3 394.519 1355.63 394.447 1355.95 394.368C1356.09 394.333 1356.23 394.296 1356.37 394.257C1357.13 394.051 1357.83 393.802 1358.48 393.516C1359.07 393.257 1359.61 392.966 1360.12 392.647C1360.96 392.118 1361.7 391.511 1362.35 390.838C1362.84 390.336 1363.28 389.798 1363.67 389.228C1363.71 389.177 1363.74 389.127 1363.78 389.076C1364.42 388.123 1364.95 387.085 1365.4 385.985C1365.45 385.88 1365.49 385.775 1365.53 385.67C1365.58 385.527 1365.64 385.382 1365.68 385.236C1365.69 385.231 1365.69 385.226 1365.69 385.222C1365.92 384.53 1366.08 383.806 1366.25 383.086C1366.26 383.05 1366.26 383.013 1366.27 382.977C1366.3 382.859 1366.33 382.741 1366.35 382.623C1366.39 382.471 1366.42 382.319 1366.46 382.168C1366.5 382.094 1366.53 382.019 1366.56 381.946C1366.57 381.903 1366.58 381.86 1366.59 381.817C1366.61 381.745 1366.62 381.673 1366.64 381.601C1366.67 381.41 1366.71 381.226 1366.82 381.056C1367.03 380.778 1367.46 380.445 1367.75 380.5C1368.04 380.5 1368.4 380.889 1368.61 381.167C1368.72 381.333 1368.71 381.53 1368.69 381.735C1368.69 381.805 1368.68 381.875 1368.68 381.946C1368.68 382.046 1368.67 382.146 1368.66 382.246C1368.66 382.321 1368.65 382.397 1368.65 382.473C1368.65 382.549 1368.64 382.626 1368.64 382.702C1368.62 382.918 1368.61 383.133 1368.6 383.347C1368.59 383.455 1368.58 383.562 1368.58 383.669C1368.54 384.239 1368.5 384.809 1368.47 385.392C1368.45 385.744 1368.42 386.096 1368.4 386.448C1368.39 386.523 1368.39 386.597 1368.38 386.671C1368.38 386.704 1368.38 386.737 1368.37 386.77C1368.37 386.776 1368.37 386.782 1368.37 386.787C1368.31 387.601 1368.25 388.414 1368.25 389.228C1368.22 390.066 1368.48 390.772 1368.93 391.372C1369.02 391.489 1369.11 391.602 1369.21 391.712C1369.77 392.31 1370.54 392.791 1371.41 393.185C1371.45 393.201 1371.48 393.216 1371.52 393.232C1371.69 393.309 1371.87 393.382 1372.05 393.453C1373.09 393.833 1374.21 394.085 1375.41 394.11C1375.79 394.118 1376.17 394.104 1376.57 394.064C1376.86 394.031 1377.16 394.028 1377.45 394.041C1377.47 394.042 1377.48 394.042 1377.49 394.043C1377.92 394.065 1378.36 394.123 1378.81 394.183C1379.08 394.22 1379.36 394.257 1379.65 394.286C1379.8 394.311 1379.96 394.335 1380.11 394.368C1380.13 394.373 1380.15 394.378 1380.16 394.383C1380.33 394.425 1380.47 394.48 1380.58 394.564C1380.87 394.842 1381.23 395.232 1381.23 395.509C1381.23 396.01 1380.58 396.065 1380.01 396.01C1379.83 395.999 1379.66 395.989 1379.48 395.978C1379.48 395.978 1379.48 395.977 1379.47 395.977C1379.45 395.975 1379.42 395.973 1379.39 395.972C1379.33 395.968 1379.28 395.965 1379.23 395.961C1378.58 395.918 1377.95 395.867 1377.28 395.787C1377.11 395.77 1376.93 395.758 1376.75 395.751C1376.75 395.751 1376.74 395.751 1376.74 395.751C1376.23 395.731 1375.73 395.754 1375.23 395.807C1374.27 395.912 1373.34 396.136 1372.41 396.399C1371.69 396.621 1370.98 397.066 1370.62 397.566C1370.57 397.622 1370.53 397.677 1370.48 397.733C1370.42 397.799 1370.37 397.865 1370.31 397.931C1370.05 398.255 1369.79 398.581 1369.55 398.913C1369.28 399.295 1369.03 399.685 1368.85 400.09C1368.79 400.229 1368.73 400.37 1368.68 400.513C1368.29 401.626 1367.96 402.751 1367.65 403.877C1367.63 403.919 1367.62 403.962 1367.61 404.004C1367.57 404.159 1367.52 404.314 1367.48 404.469Z" fill="black"/>
<path fill-rule="evenodd" clip-rule="evenodd" d="M45.6233 134.966C45.593 135.074 45.5626 135.182 45.5321 135.289C45.2653 136.233 44.9948 137.175 44.7193 138.115C44.5218 138.804 44.3886 139.493 44.2569 140.175C44.0593 141.196 43.8653 142.2 43.4631 143.158C43.3433 143.444 43.205 143.725 43.0426 144.002C42.9963 144.081 42.948 144.159 42.8977 144.237C42.2905 145.415 40.1652 146.828 38.9508 146.828C37.7363 146.828 35.6111 145.179 35.6111 144.002C35.4856 142.835 35.4638 141.627 35.4815 140.413C35.486 140.099 35.4932 139.784 35.5019 139.47C35.5141 139.029 35.5294 138.588 35.5445 138.149C35.5754 137.256 35.606 136.37 35.6105 135.505C35.6106 135.485 35.6107 135.466 35.6108 135.446C35.611 135.394 35.6111 135.341 35.6111 135.289C35.5591 134.644 35.507 133.998 35.4535 133.353C35.1945 130.231 34.8998 127.109 34.3966 123.987C34.3579 123.788 34.3174 123.591 34.2751 123.394C32.6593 115.881 28.4267 109.496 20.7342 104.678C20.1421 104.303 19.5516 103.928 18.9615 103.553C13.6478 100.175 8.36986 96.8195 2.29211 94.5883C1.09535 94.149 -0.132432 93.7533 -1.3976 93.4095C-2.87205 93.0089 -4.39728 92.679 -5.98339 92.4329C-6.2092 92.3979 -6.44172 92.3524 -6.67696 92.2974C-6.78789 92.2714 -6.89942 92.2433 -7.01114 92.2131C-8.25527 91.8769 -9.52246 91.2849 -10.2339 90.5491C-10.3584 90.4043 -10.4893 90.2545 -10.6236 90.1009C-11.7995 88.7551 -13.2389 87.1077 -12.9664 85.8396C-12.6628 84.4268 -10.2339 82.543 -8.10865 82.3075C-6.81249 82.1218 -5.54837 81.9122 -4.31534 81.6794C-2.93791 81.4194 -1.59927 81.1305 -0.298138 80.8137C-0.2644 80.8055 -0.230688 80.7973 -0.197001 80.789C-0.189177 80.7871 -0.181356 80.7852 -0.173534 80.7833C0.799691 80.5445 1.75189 80.2901 2.6836 80.0204C21.3596 74.6145 31.8076 63.0729 38.4707 48.6194C39.1776 47.0862 39.8418 45.5201 40.4688 43.9251C40.703 43.3197 40.9221 42.7064 41.1288 42.0869C41.1356 42.0664 41.1425 42.0458 41.1493 42.0253C42.0075 39.4406 42.6504 36.7476 43.2649 34.055C43.3469 33.696 43.4283 33.337 43.5097 32.9783C43.5445 32.8248 43.5793 32.6714 43.6141 32.518C43.7278 32.0174 43.8417 31.5176 43.9571 31.0191C44.1067 30.3732 44.2586 29.7298 44.4157 29.0902C44.5895 28.7757 44.7191 28.4612 44.8213 28.1483C44.8807 27.9665 44.9309 27.7852 44.9752 27.6048C45.0507 27.297 45.109 26.9917 45.1665 26.6905C45.3211 25.8803 45.4701 25.1 45.9338 24.3807C46.8446 23.2033 48.6662 21.7905 49.8807 22.026C51.0951 22.026 52.6131 23.6743 53.524 24.8517C53.9774 25.5551 53.9229 26.3898 53.8663 27.2578C53.847 27.5521 53.8276 27.8502 53.8276 28.1483C53.8015 28.5736 53.7754 28.9971 53.7492 29.4191C53.7294 29.7405 53.7095 30.0609 53.6896 30.3807C53.6694 30.7055 53.6492 31.0295 53.6291 31.3529C53.572 32.2678 53.5149 33.178 53.4578 34.0866C53.4305 34.5204 53.4032 34.9538 53.376 35.3872C53.3747 35.4081 53.3734 35.429 53.372 35.4499C53.2203 37.8629 53.0685 40.2759 52.9167 42.7477C52.8155 44.5531 52.6806 46.3584 52.5457 48.1637C52.5352 48.3039 52.5247 48.4441 52.5143 48.5843C52.5124 48.6089 52.5106 48.6334 52.5088 48.6579C52.4246 49.7865 52.3416 50.915 52.2681 52.0436C52.1171 54.3609 52.0059 56.6782 52.0059 58.9955C51.729 67.1583 57.7685 72.3817 65.7453 75.9171C65.7739 75.9298 65.8026 75.9424 65.8313 75.9551C66.5713 76.2814 67.3277 76.5932 68.0972 76.8916C73.8657 79.0109 80.2415 80.1882 87.2245 79.4818C88.473 79.3435 89.7215 79.327 90.9777 79.3848C91.0325 79.3873 91.0874 79.3899 91.1422 79.3927C92.258 79.4496 93.3802 79.5634 94.514 79.7005C95.2398 79.7882 95.9704 79.8856 96.7073 79.9838C97.8804 80.1401 99.0693 80.2985 100.28 80.4237C100.941 80.5262 101.602 80.6288 102.213 80.7702C102.298 80.79 102.382 80.8105 102.466 80.8319C103.155 81.009 103.768 81.2453 104.227 81.6011C105.441 82.7785 106.959 84.4268 106.959 85.6042C106.959 87.7234 104.227 87.9589 101.798 87.7234C101.05 87.6788 100.313 87.6342 99.5832 87.588C99.5685 87.5871 99.5538 87.5861 99.5391 87.5852C99.4167 87.5775 99.2945 87.5696 99.1724 87.5618C98.9448 87.5471 98.7177 87.5323 98.491 87.5172C96.6683 87.3959 94.8753 87.2593 93.0464 87.082C92.1296 86.9932 91.2038 86.8941 90.2606 86.7815C89.5062 86.7084 88.7584 86.658 88.0163 86.6284C87.9933 86.6275 87.9703 86.6266 87.9472 86.6258C81.548 86.3821 75.5816 87.689 69.6152 89.3718C68.368 89.7587 67.1207 90.3046 65.9787 90.9605C64.3408 91.9012 62.9194 93.0681 62.025 94.3167C58.6853 98.3198 55.3456 102.323 53.8276 106.797C51.8065 112.545 50.1591 118.365 48.5745 124.177C48.2859 125.235 47.9994 126.293 47.7132 127.351C47.069 129.73 46.4259 132.105 45.7625 134.471C45.7162 134.636 45.6698 134.801 45.6233 134.966ZM40.1511 103.507C40.2987 103.075 40.4477 102.644 40.5981 102.216C42.987 95.2417 47.8091 89.4859 50.7803 85.9393C50.866 85.837 50.9501 85.7367 51.0325 85.6381C51.377 85.1865 51.7372 84.7505 52.1109 84.3299C47.5754 81.261 43.259 77.12 40.6204 71.5846C38.3452 74.3464 35.8122 76.977 32.981 79.4324C29.2078 82.7049 25.0332 85.555 20.4293 87.9612C22.534 89.2158 24.4799 90.4601 26.2739 91.6073C26.9339 92.0293 27.5733 92.4382 28.1926 92.8297C33.0352 95.8672 37.0146 99.4589 40.1511 103.507Z" fill="#81ADC8"/>
<path fill-rule="evenodd" clip-rule="evenodd" d="M84.3075 167.001C84.0824 167.832 83.8571 168.661 83.6253 169.488C83.5961 169.592 83.5668 169.697 83.5373 169.801C83.4354 170.161 83.3321 170.521 83.2269 170.88C83.1514 171.143 83.1005 171.407 83.0502 171.667C82.9748 172.057 82.9006 172.44 82.747 172.806C82.7013 172.915 82.6484 173.023 82.5864 173.129C82.5687 173.159 82.5503 173.189 82.531 173.219C82.2991 173.668 81.4873 174.208 81.0234 174.208C80.5595 174.208 79.7478 173.578 79.7478 173.129C79.6998 172.683 79.6915 172.221 79.6983 171.758C79.7 171.638 79.7027 171.517 79.7061 171.397C79.7107 171.229 79.7165 171.061 79.7223 170.893C79.7341 170.552 79.7458 170.214 79.7475 169.883C79.7476 169.876 79.7476 169.868 79.7476 169.86C79.7477 169.84 79.7478 169.821 79.7478 169.801C79.6561 168.663 79.5644 167.526 79.4155 166.388C79.376 166.087 79.3325 165.785 79.2839 165.483C78.9914 163.986 78.4332 162.603 77.5648 161.358C76.7118 160.134 75.5594 159.044 74.0652 158.108C73.8391 157.965 73.6135 157.822 73.3881 157.678C72.4789 157.1 71.5724 156.524 70.6399 155.987C69.8465 155.531 69.0344 155.103 68.1858 154.726C66.856 154.137 65.4367 153.675 63.8598 153.431C63.7736 153.417 63.6848 153.4 63.5949 153.379C63.5525 153.369 63.5099 153.358 63.4673 153.347C62.992 153.218 62.508 152.992 62.2363 152.711C62.1887 152.656 62.1387 152.599 62.0874 152.54C61.6383 152.026 61.0884 151.397 61.1925 150.912C61.3085 150.373 62.2363 149.653 63.048 149.563C63.5431 149.492 64.026 149.412 64.497 149.323C65.0469 149.219 65.5806 149.104 66.0988 148.976C66.3326 148.919 66.5632 148.859 66.7906 148.796C67.4196 148.624 68.0247 148.434 68.607 148.227C69.4468 147.929 70.2391 147.595 70.9874 147.228C73.9544 145.774 76.2279 143.8 78.0158 141.459C78.2161 141.197 78.4103 140.93 78.5986 140.659C78.6552 140.577 78.7113 140.495 78.7669 140.413C79.9067 138.724 80.8294 136.871 81.6033 134.902C81.6927 134.671 81.7764 134.437 81.8554 134.2C81.858 134.192 81.8606 134.184 81.8632 134.176C81.9049 134.051 81.9453 133.924 81.9845 133.798C82.2944 132.794 82.5303 131.755 82.7648 130.721C82.7781 130.662 82.7914 130.604 82.8047 130.545C82.8481 130.354 82.8916 130.163 82.9357 129.972C82.9928 129.726 83.0509 129.48 83.1109 129.236C83.1773 129.115 83.2268 128.995 83.2658 128.876C83.2885 128.806 83.3077 128.737 83.3246 128.668C83.3534 128.551 83.3757 128.434 83.3976 128.319C83.4567 128.009 83.5136 127.711 83.6907 127.437C84.0386 126.987 84.7345 126.447 85.1983 126.537C85.6622 126.537 86.2421 127.167 86.59 127.617C86.7632 127.885 86.7424 128.204 86.7207 128.536C86.7134 128.648 86.706 128.762 86.706 128.876C86.696 129.038 86.686 129.2 86.676 129.361C86.6684 129.484 86.6609 129.606 86.6533 129.729C86.6456 129.853 86.6378 129.976 86.6301 130.1C86.6083 130.449 86.5865 130.797 86.5647 131.144C86.5538 131.318 86.5429 131.491 86.532 131.664C86.4748 132.574 86.4175 133.484 86.3603 134.416C86.3595 134.428 86.3588 134.44 86.358 134.452C86.3194 135.142 86.2678 135.832 86.2163 136.521C86.2123 136.575 86.2083 136.628 86.2043 136.682C86.2036 136.691 86.2029 136.701 86.2022 136.71C86.104 138.026 86.0101 139.342 86.0101 140.659C85.979 141.576 86.1569 142.397 86.5011 143.132C86.9095 144.004 87.5519 144.757 88.3573 145.41C89.1455 146.05 90.0897 146.594 91.1233 147.062C91.1789 147.087 91.2349 147.112 91.291 147.137C91.5737 147.261 91.8626 147.38 92.1565 147.494C94.3399 148.296 96.7509 148.745 99.3897 148.491C99.414 148.489 99.4383 148.486 99.4627 148.484C99.9395 148.431 100.416 148.425 100.896 148.447C100.917 148.448 100.938 148.449 100.959 148.45C101.658 148.485 102.364 148.579 103.085 148.676C103.533 148.735 103.987 148.796 104.449 148.844C104.702 148.883 104.954 148.922 105.188 148.976C105.22 148.983 105.253 148.991 105.284 148.999C105.548 149.067 105.782 149.157 105.957 149.293C106.421 149.743 107.001 150.373 107.001 150.822C107.001 151.632 105.957 151.722 105.029 151.632C104.744 151.615 104.462 151.598 104.183 151.58C104.178 151.58 104.172 151.579 104.166 151.579C104.12 151.576 104.073 151.573 104.026 151.57C103.939 151.564 103.853 151.559 103.766 151.553C102.721 151.483 101.701 151.401 100.622 151.272C100.334 151.244 100.049 151.225 99.7651 151.214C99.7563 151.213 99.7475 151.213 99.7387 151.213C99.4943 151.203 99.2516 151.2 99.0103 151.202C96.8387 151.221 94.7875 151.683 92.7364 152.261C91.5767 152.621 90.417 153.341 89.8371 154.15C89.7621 154.24 89.687 154.33 89.6121 154.42C89.5233 154.527 89.4347 154.634 89.3466 154.74C89.2956 154.802 89.2448 154.864 89.1941 154.926C88.1504 156.201 87.1879 157.497 86.706 158.917C86.5133 159.465 86.3295 160.015 86.1528 160.566C85.7484 161.826 85.3809 163.093 85.0282 164.361C85.0091 164.43 84.9901 164.498 84.9711 164.567C84.7677 165.301 84.5689 166.035 84.3704 166.768C84.3494 166.846 84.3285 166.923 84.3075 167.001ZM80.6938 153.053C81.2253 152.175 81.7883 151.391 82.3036 150.726C81.9647 150.406 81.6352 150.068 81.3194 149.711C81.0472 149.967 80.7678 150.22 80.481 150.469C79.977 150.906 79.4573 151.324 78.9215 151.724C79.546 152.144 80.1368 152.587 80.6938 153.053Z" fill="#CD4631"/>
<path fill-rule="evenodd" clip-rule="evenodd" d="M15.4824 183.469C15.4007 183.768 15.3199 184.066 15.2391 184.365C15.0871 184.926 14.9353 185.487 14.7786 186.046C14.7606 186.11 14.7424 186.175 14.7242 186.239C14.6613 186.462 14.5974 186.684 14.5324 186.906C14.4857 187.069 14.4543 187.231 14.4232 187.392C14.3766 187.633 14.3307 187.87 14.2358 188.097C14.2075 188.164 14.1749 188.23 14.1365 188.296C14.1256 188.314 14.1142 188.333 14.1023 188.351C13.959 188.629 13.4572 188.963 13.1705 188.963C12.8839 188.963 12.3821 188.574 12.3821 188.296C12.3525 188.02 12.3474 187.735 12.3515 187.448C12.3526 187.374 12.3543 187.3 12.3564 187.226C12.3593 187.122 12.3628 187.018 12.3664 186.914C12.3737 186.703 12.3809 186.494 12.382 186.29C12.382 186.285 12.382 186.28 12.3821 186.276C12.3821 186.264 12.3821 186.251 12.3821 186.239C12.3105 185.349 12.2388 184.46 12.0954 183.571C12.0638 183.408 12.0271 183.249 11.9852 183.091C11.683 181.953 11.1109 180.933 10.2133 180.058C9.82728 179.682 9.381 179.332 8.87008 179.012C8.7303 178.924 8.5909 178.835 8.4516 178.747C8.27348 178.633 8.09554 178.52 7.9172 178.408C7.35046 178.051 6.77974 177.703 6.18691 177.387C5.09224 176.805 3.92219 176.332 2.5627 176.122C2.50939 176.113 2.4545 176.103 2.39896 176.09C2.37277 176.083 2.34644 176.077 2.32007 176.07C2.02636 175.99 1.72721 175.851 1.55925 175.677C1.52987 175.643 1.49898 175.607 1.46727 175.571C1.18967 175.253 0.849854 174.864 0.914182 174.565C0.985857 174.232 1.55925 173.787 2.06098 173.731C2.36697 173.687 2.66539 173.638 2.95648 173.583C3.29636 173.519 3.62623 173.447 3.94644 173.368C4.09093 173.333 4.23345 173.296 4.37404 173.257C5.12958 173.051 5.82929 172.802 6.47821 172.516C7.06606 172.257 7.61223 171.966 8.12047 171.647C8.96361 171.118 9.70235 170.511 10.3538 169.838C10.8393 169.336 11.2763 168.798 11.6719 168.228C11.7069 168.177 11.7416 168.127 11.7759 168.076C12.4193 167.123 12.9508 166.085 13.4025 164.985C13.4454 164.88 13.4875 164.775 13.5289 164.67C13.5842 164.527 13.6359 164.382 13.6847 164.236C13.6863 164.231 13.688 164.226 13.6896 164.222C13.9192 163.53 14.0835 162.806 14.2468 162.086C14.255 162.05 14.2632 162.013 14.2714 161.977C14.2983 161.859 14.3252 161.741 14.3524 161.623C14.3877 161.471 14.4236 161.319 14.4607 161.168C14.5017 161.094 14.5323 161.019 14.5564 160.946C14.5705 160.903 14.5823 160.86 14.5928 160.817C14.6106 160.745 14.6244 160.673 14.6379 160.601C14.6744 160.41 14.7096 160.226 14.8191 160.056C15.0341 159.778 15.4641 159.445 15.7508 159.5C16.0375 159.5 16.3959 159.889 16.6109 160.167C16.718 160.333 16.7051 160.53 16.6917 160.735C16.6872 160.805 16.6826 160.875 16.6826 160.946C16.6764 161.046 16.6703 161.146 16.6641 161.246C16.6594 161.321 16.6547 161.397 16.65 161.473C16.6453 161.549 16.6405 161.626 16.6357 161.702C16.6223 161.918 16.6088 162.133 16.5953 162.347C16.5886 162.455 16.5818 162.562 16.5751 162.669C16.5392 163.239 16.5034 163.809 16.4676 164.392C16.4478 164.744 16.4227 165.096 16.3965 165.448C16.391 165.523 16.3855 165.597 16.38 165.671C16.3775 165.704 16.375 165.737 16.3726 165.77C16.3721 165.776 16.3717 165.782 16.3713 165.787C16.3106 166.601 16.2526 167.414 16.2526 168.228C16.2241 169.066 16.4776 169.772 16.9279 170.372C17.0159 170.489 17.1115 170.602 17.2139 170.712C17.775 171.31 18.5426 171.791 19.4127 172.185C19.4471 172.201 19.4817 172.216 19.5164 172.232C19.6911 172.309 19.8697 172.382 20.0513 172.453C21.0871 172.833 22.2058 173.085 23.4074 173.11C23.7857 173.118 24.1721 173.104 24.5668 173.064C24.8615 173.031 25.1563 173.028 25.4528 173.041C25.4658 173.042 25.4787 173.042 25.4917 173.043C25.9237 173.065 26.3598 173.123 26.8054 173.183C27.0824 173.22 27.3631 173.257 27.6488 173.286C27.8048 173.311 27.9609 173.335 28.1051 173.368C28.1253 173.373 28.1452 173.378 28.1649 173.383C28.3276 173.425 28.4723 173.48 28.5806 173.564C28.8673 173.842 29.2256 174.232 29.2256 174.509C29.2256 175.01 28.5806 175.065 28.0072 175.01C27.8307 174.999 27.6567 174.989 27.4844 174.978C27.4809 174.978 27.4774 174.977 27.474 174.977C27.4451 174.975 27.4162 174.973 27.3874 174.972C27.3337 174.968 27.2801 174.965 27.2266 174.961C26.5806 174.918 25.9504 174.867 25.2835 174.787C25.1055 174.77 24.9289 174.758 24.7537 174.751C24.7483 174.751 24.7428 174.751 24.7374 174.751C24.2257 174.731 23.7257 174.754 23.2335 174.807C22.2725 174.912 21.3411 175.136 20.4097 175.399C19.6929 175.621 18.9762 176.066 18.6178 176.566C18.5714 176.622 18.525 176.677 18.4787 176.733C18.4239 176.799 18.3691 176.865 18.3146 176.931C18.047 177.255 17.7859 177.581 17.5485 177.913C17.2758 178.295 17.0344 178.685 16.8506 179.09C16.7875 179.229 16.7311 179.37 16.6826 179.513C16.2911 180.626 15.9589 181.751 15.6456 182.877C15.6339 182.919 15.6221 182.962 15.6104 183.004C15.5674 183.159 15.5248 183.314 15.4824 183.469Z" fill="black"/>
</g>
</g>
<defs>
<linearGradient id="paint0_linear_2309_7508" x1="720" y1="0" x2="720" y2="417" gradientUnits="userSpaceOnUse">
<stop stop-color="#FFF6F4"/>
<stop offset="1" stop-color="#FFF6E5"/>
</linearGradient>
<clipPath id="clip0_2309_7508">
<rect width="1440" height="417" fill="white"/>
</clipPath>
</defs>
</svg>
