<svg width="1440" height="350" viewBox="0 0 1440 350" fill="none" xmlns="http://www.w3.org/2000/svg">
<g clip-path="url(#clip0_2309_6744)">
<rect width="1440" height="350" fill="#140D52"/>
<path opacity="0.2" d="M1192.77 37.2987C1194.66 35.1843 1196.58 32.6655 1198.22 29.782C1195.49 31.6224 1193.14 33.7285 1191.18 35.7727C1189.1 33.8605 1186.62 31.9125 1183.78 30.2544C1185.6 33.0252 1187.67 35.4125 1189.69 37.3998C1186.13 41.465 1184.25 44.9032 1184.25 44.9032C1184.25 44.9032 1187.51 42.775 1191.28 38.9004C1195.29 42.5203 1198.68 44.4308 1198.68 44.4308C1198.68 44.4308 1196.59 41.1231 1192.77 37.2987ZM1172.33 373.222C1174.22 371.108 1176.14 368.589 1177.77 365.706C1175.05 367.546 1172.7 369.652 1170.74 371.696C1168.66 369.784 1166.18 367.836 1163.34 366.178C1165.16 368.949 1167.23 371.337 1169.25 373.324C1165.69 377.389 1163.81 380.827 1163.81 380.827C1163.81 380.827 1167.07 378.699 1170.84 374.825C1174.85 378.445 1178.24 380.356 1178.24 380.356C1178.24 380.356 1176.14 377.046 1172.33 373.222ZM1265.24 211.319C1267.13 209.204 1269.05 206.686 1270.69 203.802C1267.96 205.643 1265.61 207.748 1263.65 209.793C1261.57 207.881 1259.09 205.933 1256.25 204.275C1258.07 207.045 1260.15 209.433 1262.16 211.42C1258.6 215.485 1256.72 218.923 1256.72 218.923C1256.72 218.923 1259.98 216.795 1263.75 212.921C1267.76 216.541 1271.15 218.451 1271.15 218.451C1271.15 218.451 1269.06 215.143 1265.24 211.319ZM995.341 465.765C997.227 463.651 999.149 461.132 1000.78 458.248C998.057 460.089 995.707 462.195 993.75 464.239C991.668 462.327 989.189 460.379 986.351 458.721C988.166 461.491 990.243 463.879 992.259 465.866C988.696 469.931 986.816 473.369 986.816 473.369C986.816 473.369 990.079 471.241 993.849 467.367C997.858 470.987 1001.25 472.898 1001.25 472.898C1001.25 472.898 999.155 469.589 995.341 465.765ZM1407.09 89.0026C1408.98 86.8882 1410.9 84.3694 1412.54 81.4859C1409.81 83.3263 1407.46 85.4324 1405.5 87.4766C1403.42 85.5644 1400.94 83.6164 1398.1 81.9583C1399.92 84.7291 1401.99 87.1164 1404.01 89.1037C1400.45 93.1689 1398.57 96.6071 1398.57 96.6071C1398.57 96.6071 1401.83 94.4789 1405.6 90.6043C1409.61 94.2242 1413 96.1353 1413 96.1353C1413 96.1353 1410.91 92.8264 1407.09 89.0026ZM1376.36 319.277C1378.24 317.162 1380.17 314.644 1381.8 311.76C1379.07 313.601 1376.72 315.706 1374.77 317.751C1372.68 315.839 1370.21 313.891 1367.37 312.233C1369.18 315.004 1371.26 317.391 1373.28 319.378C1369.71 323.443 1367.83 326.882 1367.83 326.882C1367.83 326.882 1371.09 324.753 1374.87 320.879C1378.87 324.499 1382.27 326.409 1382.27 326.409C1382.27 326.409 1380.17 323.101 1376.36 319.277ZM776.814 70.4941C778.7 68.3797 780.622 65.8609 782.257 62.9774C779.53 64.8178 777.179 66.9233 775.223 68.9681C773.141 67.0559 770.662 65.1079 767.823 63.4498C769.639 66.2206 771.716 68.6079 773.732 70.5952C770.169 74.6604 768.289 78.0986 768.289 78.0986C768.289 78.0986 771.552 75.9704 775.322 72.0958C779.331 75.7157 782.722 77.6262 782.722 77.6262C782.722 77.6262 780.628 74.3179 776.814 70.4941ZM918.566 190.899C920.452 188.784 922.374 186.266 924.009 183.382C921.282 185.222 918.931 187.328 916.975 189.373C914.893 187.461 912.414 185.513 909.576 183.855C911.391 186.625 913.468 189.013 915.484 191C911.921 195.065 910.041 198.503 910.041 198.503C910.041 198.503 913.304 196.375 917.074 192.5C921.083 196.12 924.474 198.031 924.474 198.031C924.474 198.031 922.38 194.723 918.566 190.899ZM750.991 440.15C752.877 438.035 754.798 435.516 756.433 432.633C753.706 434.473 751.356 436.579 749.4 438.624C747.318 436.712 744.839 434.763 742 433.105C743.815 435.876 745.892 438.263 747.909 440.251C744.346 444.316 742.465 447.755 742.465 447.755C742.465 447.755 745.728 445.627 749.499 441.752C753.507 445.372 756.899 447.282 756.899 447.282C756.899 447.282 754.805 443.974 750.991 440.15ZM758.44 319.277C760.326 317.162 762.248 314.644 763.883 311.76C761.156 313.601 758.806 315.706 756.849 317.751C754.767 315.839 752.288 313.891 749.45 312.233C751.265 315.004 753.342 317.391 755.358 319.378C751.795 323.443 749.915 326.882 749.915 326.882C749.915 326.882 753.178 324.753 756.948 320.879C760.957 324.499 764.348 326.409 764.348 326.409C764.348 326.409 762.254 323.101 758.44 319.277ZM1048.13 81.4417C1050.02 79.3268 1051.94 76.8085 1053.58 73.9251C1050.85 75.7654 1048.5 77.871 1046.54 79.9158C1044.46 78.0036 1041.98 76.0555 1039.14 74.3975C1040.96 77.1682 1043.03 79.5555 1045.05 81.5428C1041.49 85.6081 1039.61 89.0463 1039.61 89.0463C1039.61 89.0463 1042.87 86.918 1046.64 83.0434C1050.65 86.6633 1054.04 88.5744 1054.04 88.5744C1054.04 88.5744 1051.95 85.2655 1048.13 81.4417ZM848.329 9.50391C848.329 11.4393 846.783 13.0078 844.877 13.0078C842.97 13.0078 841.424 11.4393 841.424 9.50391C841.424 7.56908 842.97 6 844.877 6C846.783 6 848.329 7.56908 848.329 9.50391Z" fill="white"/>
<path opacity="0.2" d="M450.773 24.7987C452.659 22.6843 454.58 20.1655 456.215 17.282C453.488 19.1224 451.138 21.2285 449.182 23.2727C447.1 21.3605 444.621 19.4125 441.782 17.7544C443.597 20.5252 445.675 22.9125 447.691 24.8998C444.128 28.965 442.247 32.4032 442.247 32.4032C442.247 32.4032 445.51 30.275 449.281 26.4004C453.289 30.0203 456.681 31.9308 456.681 31.9308C456.681 31.9308 454.586 28.6231 450.773 24.7987ZM430.331 360.722C432.217 358.608 434.139 356.089 435.774 353.206C433.047 355.046 430.697 357.152 428.741 359.196C426.658 357.284 424.18 355.336 421.341 353.678C423.156 356.449 425.233 358.837 427.25 360.824C423.686 364.889 421.806 368.327 421.806 368.327C421.806 368.327 425.069 366.199 428.84 362.325C432.848 365.945 436.24 367.856 436.24 367.856C436.24 367.856 434.145 364.546 430.331 360.722ZM523.244 198.819C525.13 196.704 527.052 194.186 528.687 191.302C525.96 193.143 523.609 195.248 521.653 197.293C519.571 195.381 517.092 193.433 514.253 191.775C516.069 194.545 518.146 196.933 520.162 198.92C516.599 202.985 514.719 206.423 514.719 206.423C514.719 206.423 517.981 204.295 521.752 200.421C525.76 204.041 529.152 205.951 529.152 205.951C529.152 205.951 527.057 202.643 523.244 198.819ZM253.341 453.265C255.227 451.151 257.149 448.632 258.784 445.748C256.057 447.589 253.707 449.695 251.75 451.739C249.668 449.827 247.189 447.879 244.351 446.221C246.166 448.991 248.243 451.379 250.259 453.366C246.696 457.431 244.816 460.869 244.816 460.869C244.816 460.869 248.079 458.741 251.849 454.867C255.858 458.487 259.25 460.398 259.25 460.398C259.25 460.398 257.155 457.089 253.341 453.265ZM665.092 76.5026C666.978 74.3882 668.899 71.8694 670.535 68.9859C667.808 70.8263 665.458 72.9324 663.501 74.9766C661.419 73.0644 658.94 71.1164 656.102 69.4583C657.917 72.2291 659.994 74.6164 662.01 76.6037C658.447 80.6689 656.567 84.1071 656.567 84.1071C656.567 84.1071 659.83 81.9789 663.6 78.1043C667.609 81.7242 671 83.6353 671 83.6353C671 83.6353 668.905 80.3264 665.092 76.5026ZM634.357 306.777C636.244 304.662 638.165 302.144 639.8 299.26C637.073 301.101 634.723 303.206 632.766 305.251C630.684 303.339 628.206 301.391 625.367 299.733C627.182 302.504 629.259 304.891 631.276 306.878C627.712 310.943 625.832 314.382 625.832 314.382C625.832 314.382 629.095 312.253 632.865 308.379C636.874 311.999 640.265 313.909 640.265 313.909C640.265 313.909 638.171 310.601 634.357 306.777ZM34.8141 57.9941C36.7002 55.8797 38.6217 53.3609 40.2568 50.4774C37.5297 52.3178 35.1793 54.4233 33.223 56.4681C31.141 54.5559 28.6621 52.6079 25.8234 50.9498C27.6388 53.7206 29.7159 56.1079 31.7321 58.0952C28.1689 62.1604 26.2888 65.5986 26.2888 65.5986C26.2888 65.5986 29.5515 63.4704 33.3221 59.5958C37.3305 63.2157 40.7222 65.1262 40.7222 65.1262C40.7222 65.1262 38.6282 61.8179 34.8141 57.9941ZM176.566 178.399C178.452 176.284 180.374 173.766 182.009 170.882C179.282 172.722 176.931 174.828 174.975 176.873C172.893 174.961 170.414 173.013 167.576 171.355C169.391 174.125 171.468 176.513 173.484 178.5C169.921 182.565 168.041 186.003 168.041 186.003C168.041 186.003 171.304 183.875 175.074 180C179.083 183.62 182.474 185.531 182.474 185.531C182.474 185.531 180.38 182.223 176.566 178.399ZM8.99065 427.65C10.8767 425.535 12.7982 423.016 14.4334 420.133C11.7063 421.973 9.3559 424.079 7.39958 426.124C5.31753 424.212 2.83867 422.263 0 420.605C1.81533 423.376 3.89248 425.763 5.90867 427.751C2.3455 431.816 0.465398 435.255 0.465398 435.255C0.465398 435.255 3.7281 433.127 7.49865 429.252C11.5071 432.872 14.8988 434.782 14.8988 434.782C14.8988 434.782 12.8048 431.474 8.99065 427.65ZM16.4403 306.777C18.3264 304.662 20.2479 302.144 21.8831 299.26C19.156 301.101 16.8056 303.206 14.8492 305.251C12.7672 303.339 10.2883 301.391 7.44966 299.733C9.26499 302.504 11.3421 304.891 13.3583 306.878C9.79517 310.943 7.91506 314.382 7.91506 314.382C7.91506 314.382 11.1778 312.253 14.9483 308.379C18.9567 311.999 22.3484 313.909 22.3484 313.909C22.3484 313.909 20.2539 310.601 16.4403 306.777ZM306.133 68.9417C308.019 66.8268 309.941 64.3085 311.576 61.4251C308.849 63.2654 306.498 65.371 304.542 67.4158C302.46 65.5036 299.981 63.5555 297.142 61.8975C298.958 64.6682 301.035 67.0555 303.051 69.0428C299.488 73.1081 297.608 76.5463 297.608 76.5463C297.608 76.5463 300.87 74.418 304.641 70.5434C308.649 74.1633 312.041 76.0744 312.041 76.0744C312.041 76.0744 309.947 72.7655 306.133 68.9417ZM106.329 -2.99609C106.329 -1.06071 104.783 0.507814 102.877 0.507814C100.97 0.507814 99.4241 -1.06071 99.4241 -2.99609C99.4241 -4.93092 100.97 -6.5 102.877 -6.5C104.783 -6.5 106.329 -4.93092 106.329 -2.99609Z" fill="white"/>
<path opacity="0.1" d="M436.912 418.897C435.504 398.085 417.488 382.35 396.669 383.758C390.259 384.189 384.337 386.201 379.241 389.383C379.224 388.993 379.218 388.603 379.189 388.214C377.822 367.971 360.307 352.673 340.063 354.04C330.605 354.679 322.234 358.839 316.126 365.156C305.219 352.051 288.402 344.181 270.09 345.42C261.154 346.025 252.865 348.73 245.664 353.016C240.934 334.496 223.547 321.397 203.787 322.734C199.162 323.042 194.77 324.136 190.727 325.852C185.69 312.008 171.978 302.556 156.54 303.597C155.895 303.644 155.26 303.708 154.626 303.789C154.57 299.921 153.513 296.889 151.857 294.287C141.322 277.737 140.255 255.244 150.785 238.691C157.58 228.01 199.607 163.292 207.455 157.068L176.803 135.375C176.803 135.375 121.69 196.53 98.9629 215.525C85.9131 226.432 56.71 229.051 41.2112 222.047C36.825 220.065 31.9001 219.105 26.7617 219.452C25.1154 219.562 23.5157 219.807 21.9573 220.167C22.2074 216.375 22.0672 212.489 21.4977 208.574C17.1115 178.502 -10.8281 157.678 -40.9026 162.064C-41.7112 162.186 -42.5134 162.32 -43.3162 162.477C-43.2527 160.301 -43.3627 158.091 -43.689 155.863C-45.8472 141.042 -56.3467 129.49 -69.7316 125.273C-66.4623 117.194 -65.2233 108.172 -66.5729 98.9293C-70.6217 71.1776 -96.3967 51.965 -124.144 56.0132C-127.338 56.4786 -130.421 57.2348 -133.365 58.247C-137.704 45.1129 -146.616 34.3399 -158 27.5V421.444H437C436.999 420.601 436.97 419.752 436.912 418.897Z" fill="#7363FC"/>
<g opacity="0.1">
<path d="M301.765 99.6432L286.416 138.832L268.791 139.766L267.086 88.8098L294.068 81.2256L301.765 99.6432Z" fill="#F04896"/>
<path d="M228.349 33.6309L191 53.035L191.934 70.6591L242.788 66.9685L247.478 39.3382L228.349 33.6309Z" fill="#F04896"/>
<path d="M317.645 65.464C305.575 77.6726 288.162 92.1848 263.587 106.877C263.587 106.877 263.587 106.877 263.577 106.878C257.6 110.458 251.197 114.042 244.342 117.607L216.742 92.787C219.475 85.8213 222.273 79.2647 225.101 73.1148C237.27 46.662 250.053 27.5614 261.039 14.1535C277.653 -6.1318 290.152 -13.3965 290.152 -13.3965L342.178 33.3902C342.178 33.3902 336.227 46.6875 317.645 65.464Z" fill="white"/>
<path d="M317.646 65.4613C312.784 70.3772 307.049 75.6707 300.336 81.2013C299.75 81.6829 299.15 82.1703 298.549 82.6574C297.402 83.5816 296.233 84.5112 295.04 85.4472C294.438 85.9153 293.833 86.3885 293.208 86.863C284.743 93.3592 274.925 100.098 263.587 106.874C263.587 106.874 263.587 106.874 263.578 106.875C263.05 106.67 238.18 97.278 225.102 73.1117C230.751 60.8403 236.526 50.1514 242.192 40.8766L242.197 40.8716C242.598 40.215 242.991 39.5772 243.389 38.9348C244.198 37.6442 244.999 36.3829 245.797 35.1454C246.209 34.5068 246.622 33.8779 247.039 33.2535C251.891 25.8862 256.612 19.5554 261.04 14.1504C261.04 14.1504 279.618 48.0195 317.646 65.4613Z" fill="#CCD2FF"/>
<path d="M300.333 81.1945C299.746 81.6761 299.146 82.1635 298.545 82.6505C286.822 77.8645 277.079 71.0667 269.254 64.0299C256.249 52.3342 248.535 39.9741 245.793 35.139C246.205 34.5004 246.618 33.8714 247.035 33.2471C250.329 39.2718 267.578 68.3067 300.333 81.1945Z" fill="white"/>
<path d="M295.044 85.4469C294.442 85.9151 293.836 86.3883 293.211 86.8627C281.987 82.1023 272.626 75.5214 265.055 68.7127C252.906 57.7877 245.376 46.2859 242.195 40.8764L242.2 40.8713C242.602 40.2147 242.995 39.577 243.392 38.9346C247.739 46.564 264.522 72.9724 295.044 85.4469Z" fill="white"/>
<path d="M343.439 -20.4729C313.519 -39.6485 290.012 -13.5013 290.012 -13.5013L342.153 33.3891C342.153 33.3891 365.671 7.25085 343.439 -20.4729Z" fill="#F04896"/>
<path d="M200.805 138.152C204.468 112.192 213.12 106.987 219.438 106.971L229.844 116.328C230.495 122.612 226.234 131.766 200.805 138.152Z" fill="#FAAF3A"/>
<path d="M207.164 131.091C209.638 113.572 215.035 108.225 219.625 107.115L229.691 116.167C229.072 120.848 224.325 126.78 207.164 131.091Z" fill="#FFBB61"/>
<path d="M215.609 121.696C216.795 113.29 219.192 109.933 221.471 108.782L227.832 114.503C226.928 116.89 223.843 119.629 215.609 121.696Z" fill="#FFCD92"/>
<path d="M227.123 136.543C224.599 122.725 228.523 118.515 232.055 117.358L239.525 120.208C240.996 123.273 240.225 128.685 227.123 136.543Z" fill="#FAAF3A"/>
<path d="M229.443 131.827C227.74 122.502 229.818 118.812 232.191 117.415L239.417 120.171C239.895 122.655 238.285 126.524 229.443 131.827Z" fill="#FFBB61"/>
<path d="M232.522 125.524C231.705 121.05 232.454 118.914 233.526 117.916L238.093 119.658C238.008 121.032 236.765 122.98 232.522 125.524Z" fill="#FFCD92"/>
<path d="M199.117 112.278C213.126 113.328 216.897 108.981 217.674 105.347L214.051 98.2202C210.847 97.0808 205.546 98.42 199.117 112.278Z" fill="#FAAF3A"/>
<path d="M203.59 109.489C213.043 110.196 216.493 107.74 217.631 105.234L214.127 98.34C211.606 98.1269 207.929 100.137 203.59 109.489Z" fill="#FFBB61"/>
<path d="M209.516 105.774C214.052 106.114 216.097 105.142 216.975 103.971L214.76 99.6143C213.403 99.8442 211.597 101.286 209.516 105.774Z" fill="#FFCD92"/>
<path d="M302.075 44.892L282.952 27.6943C281.298 26.2069 281.163 23.6604 282.65 22.0067L295.215 8.03635C296.703 6.38266 299.249 6.24782 300.902 7.73484L320.026 24.9326C321.68 26.42 321.815 28.9665 320.327 30.6202L307.762 44.591C306.275 46.2442 303.729 46.3791 302.075 44.892Z" fill="#261D54"/>
<path d="M302.228 39.8518L287.936 26.9992C286.941 26.1039 286.859 24.5716 287.755 23.5762L297.306 12.9564C298.201 11.961 299.734 11.8798 300.729 12.7751L315.021 25.6277C316.016 26.5231 316.098 28.0557 315.202 29.0507L305.651 39.6705C304.756 40.6655 303.223 40.7467 302.228 39.8518Z" fill="#A4DAF5"/>
<path d="M309.012 24.1963C309.012 24.1963 313.246 26.8345 310.744 29.5393C308.242 32.2445 311.862 27.2068 309.012 24.1963Z" fill="white"/>
<path d="M216.919 92.2861L244.758 117.322C244.758 117.322 241.767 127.236 238.768 125.745C235.769 124.254 209.566 101.596 208.539 98.9851C207.513 96.3737 216.919 92.2861 216.919 92.2861Z" fill="#F04896"/>
</g>
<path opacity="0.1" d="M990.088 422.897C991.496 402.085 1009.51 386.35 1030.33 387.758C1036.74 388.189 1042.66 390.201 1047.76 393.383C1047.78 392.993 1047.78 392.603 1047.81 392.214C1049.18 371.971 1066.69 356.673 1086.94 358.04C1096.39 358.679 1104.77 362.839 1110.87 369.156C1121.78 356.051 1138.6 348.181 1156.91 349.42C1165.85 350.025 1174.13 352.73 1181.34 357.016C1186.07 338.496 1203.45 325.397 1223.21 326.734C1227.84 327.042 1232.23 328.136 1236.27 329.852C1241.31 316.008 1255.02 306.556 1270.46 307.597C1271.11 307.644 1271.74 307.708 1272.37 307.789C1272.43 303.921 1273.49 300.889 1275.14 298.287C1285.68 281.737 1286.75 259.244 1276.21 242.691C1269.42 232.01 1227.39 167.292 1219.54 161.068L1250.2 139.375C1250.2 139.375 1305.31 200.53 1328.04 219.525C1341.09 230.432 1370.29 233.051 1385.79 226.047C1390.18 224.065 1395.1 223.105 1400.24 223.452C1401.88 223.562 1403.48 223.807 1405.04 224.167C1404.79 220.375 1404.93 216.489 1405.5 212.574C1409.89 182.502 1437.83 161.678 1467.9 166.064C1468.71 166.186 1469.51 166.32 1470.32 166.477C1470.25 164.301 1470.36 162.091 1470.69 159.863C1472.85 145.042 1483.35 133.49 1496.73 129.273C1493.46 121.194 1492.22 112.172 1493.57 102.929C1497.62 75.1776 1523.4 55.965 1551.14 60.0132C1554.34 60.4786 1557.42 61.2348 1560.36 62.247C1564.7 49.1129 1573.62 38.3399 1585 31.5V425.444H990C990.001 424.601 990.03 423.752 990.088 422.897Z" fill="#7363FC"/>
<g opacity="0.1">
<path d="M1129.24 102.643L1144.58 141.832L1162.21 142.766L1163.91 91.8098L1136.93 84.2256L1129.24 102.643Z" fill="#F04896"/>
<path d="M1202.65 36.6309L1240 56.035L1239.07 73.6591L1188.21 69.9685L1183.52 42.3382L1202.65 36.6309Z" fill="#F04896"/>
<path d="M1113.35 68.464C1125.42 80.6726 1142.83 95.1848 1167.41 109.877C1167.41 109.877 1167.41 109.877 1167.42 109.878C1173.4 113.458 1179.8 117.042 1186.65 120.607L1214.25 95.787C1211.52 88.8213 1208.72 82.2647 1205.89 76.1148C1193.73 49.662 1180.94 30.5614 1169.96 17.1535C1153.34 -3.1318 1140.84 -10.3965 1140.84 -10.3965L1088.82 36.3902C1088.82 36.3902 1094.77 49.6875 1113.35 68.464Z" fill="white"/>
<path d="M1113.35 68.4613C1118.22 73.3772 1123.95 78.6707 1130.66 84.2013C1131.25 84.6829 1131.85 85.1703 1132.45 85.6574C1133.6 86.5816 1134.77 87.5112 1135.96 88.4472C1136.56 88.9153 1137.17 89.3885 1137.79 89.863C1146.26 96.3592 1156.07 103.098 1167.41 109.874C1167.41 109.874 1167.41 109.874 1167.42 109.875C1167.95 109.67 1192.82 100.278 1205.9 76.1117C1200.25 63.8403 1194.47 53.1514 1188.81 43.8766L1188.8 43.8716C1188.4 43.215 1188.01 42.5772 1187.61 41.9348C1186.8 40.6442 1186 39.3829 1185.2 38.1454C1184.79 37.5068 1184.38 36.8779 1183.96 36.2535C1179.11 28.8862 1174.39 22.5554 1169.96 17.1504C1169.96 17.1504 1151.38 51.0195 1113.35 68.4613Z" fill="#CCD2FF"/>
<path d="M1130.67 84.1945C1131.25 84.6761 1131.85 85.1635 1132.45 85.6505C1144.18 80.8645 1153.92 74.0667 1161.75 67.0299C1174.75 55.3342 1182.46 42.9741 1185.21 38.139C1184.79 37.5004 1184.38 36.8714 1183.96 36.2471C1180.67 42.2718 1163.42 71.3067 1130.67 84.1945Z" fill="white"/>
<path d="M1135.96 88.4469C1136.56 88.9151 1137.16 89.3883 1137.79 89.8627C1149.01 85.1023 1158.37 78.5214 1165.95 71.7127C1178.09 60.7877 1185.62 49.2859 1188.8 43.8764L1188.8 43.8713C1188.4 43.2147 1188.01 42.577 1187.61 41.9346C1183.26 49.564 1166.48 75.9724 1135.96 88.4469Z" fill="white"/>
<path d="M1087.56 -17.4729C1117.48 -36.6485 1140.98 -10.5013 1140.98 -10.5013L1088.84 36.3891C1088.84 36.3891 1065.33 10.2508 1087.56 -17.4729Z" fill="#F04896"/>
<path d="M1230.2 141.152C1226.53 115.192 1217.88 109.987 1211.56 109.971L1201.16 119.328C1200.5 125.612 1204.77 134.766 1230.2 141.152Z" fill="#FAAF3A"/>
<path d="M1223.84 134.091C1221.36 116.572 1215.96 111.225 1211.37 110.115L1201.31 119.167C1201.93 123.848 1206.68 129.78 1223.84 134.091Z" fill="#FFBB61"/>
<path d="M1215.39 124.696C1214.2 116.29 1211.81 112.933 1209.53 111.782L1203.17 117.503C1204.07 119.89 1207.16 122.629 1215.39 124.696Z" fill="#FFCD92"/>
<path d="M1203.88 139.543C1206.4 125.725 1202.48 121.515 1198.95 120.358L1191.48 123.208C1190 126.273 1190.78 131.685 1203.88 139.543Z" fill="#FAAF3A"/>
<path d="M1201.56 134.827C1203.26 125.502 1201.18 121.812 1198.81 120.415L1191.58 123.171C1191.1 125.655 1192.72 129.524 1201.56 134.827Z" fill="#FFBB61"/>
<path d="M1198.47 128.524C1199.29 124.05 1198.54 121.914 1197.47 120.916L1192.9 122.658C1192.99 124.032 1194.23 125.98 1198.47 128.524Z" fill="#FFCD92"/>
<path d="M1231.89 115.278C1217.88 116.328 1214.11 111.981 1213.33 108.347L1216.95 101.22C1220.16 100.081 1225.46 101.42 1231.89 115.278Z" fill="#FAAF3A"/>
<path d="M1227.41 112.489C1217.96 113.196 1214.51 110.74 1213.37 108.234L1216.88 101.34C1219.4 101.127 1223.07 103.137 1227.41 112.489Z" fill="#FFBB61"/>
<path d="M1221.48 108.774C1216.95 109.114 1214.9 108.142 1214.02 106.971L1216.24 102.614C1217.6 102.844 1219.4 104.286 1221.48 108.774Z" fill="#FFCD92"/>
<path d="M1128.93 47.892L1148.05 30.6943C1149.71 29.2069 1149.84 26.6604 1148.35 25.0067L1135.79 11.0364C1134.3 9.38266 1131.76 9.24782 1130.1 10.7348L1110.98 27.9326C1109.32 29.42 1109.19 31.9665 1110.68 33.6202L1123.24 47.591C1124.73 49.2442 1127.27 49.3791 1128.93 47.892Z" fill="#261D54"/>
<path d="M1128.77 42.8518L1143.06 29.9992C1144.06 29.1039 1144.14 27.5716 1143.25 26.5762L1133.69 15.9564C1132.8 14.961 1131.27 14.8798 1130.27 15.7751L1115.98 28.6277C1114.98 29.5231 1114.9 31.0557 1115.8 32.0507L1125.35 42.6705C1126.24 43.6655 1127.78 43.7467 1128.77 42.8518Z" fill="#A4DAF5"/>
<path d="M1121.99 27.1963C1121.99 27.1963 1117.75 29.8345 1120.26 32.5393C1122.76 35.2445 1119.14 30.2068 1121.99 27.1963Z" fill="white"/>
<path d="M1214.09 95.2861L1186.25 120.322C1186.25 120.322 1189.24 130.236 1192.24 128.745C1195.23 127.254 1221.44 104.596 1222.46 101.985C1223.49 99.3737 1214.09 95.2861 1214.09 95.2861Z" fill="#F04896"/>
</g>
</g>
<defs>
<clipPath id="clip0_2309_6744">
<rect width="1440" height="350" fill="white"/>
</clipPath>
</defs>
</svg>
