<svg width="95" height="25" viewBox="0 0 95 25" fill="none" xmlns="http://www.w3.org/2000/svg">
<path d="M0 19C0 16.2386 2.23858 14 5 14V25C2.23858 25 0 22.7614 0 20V19Z" fill="#383175"/>
<path d="M95 0H3.99999C1.79086 0 -7.62939e-06 1.79086 -7.62939e-06 4V20L1.95016 19.1007C3.04529 18.5957 4.24043 18.3448 5.4462 18.3667L95 20L86.7391 10L95 0Z" fill="url(#paint0_linear_6408_84039)"/>
<path d="M18.748 8.918C19.364 8.47 19.742 7.77 19.742 6.916C19.742 5.348 18.454 4.2 16.872 4.2H12.98V14H17.18C18.804 14 20.12 12.824 20.12 11.2C20.12 10.15 19.574 9.352 18.748 8.918ZM16.872 5.712C17.586 5.712 18.132 6.272 18.132 7C18.132 7.728 17.586 8.288 16.872 8.288H14.59V5.712H16.872ZM17.18 12.488H14.59V9.744H17.18C17.936 9.744 18.51 10.346 18.51 11.116C18.51 11.886 17.936 12.488 17.18 12.488ZM22.6853 11.144H28.2573C28.2853 10.948 28.3133 10.724 28.3133 10.514C28.3133 8.498 26.8853 6.818 24.7993 6.818C22.6013 6.818 21.1033 8.428 21.1033 10.5C21.1033 12.6 22.6013 14.182 24.9113 14.182C26.2833 14.182 27.3333 13.608 27.9773 12.656L26.7313 11.928C26.3953 12.418 25.7653 12.796 24.9253 12.796C23.8053 12.796 22.9233 12.236 22.6853 11.144ZM22.6713 9.912C22.8813 8.862 23.6513 8.19 24.7853 8.19C25.6953 8.19 26.5773 8.708 26.7873 9.912H22.6713ZM30.7283 8.932C30.7283 8.428 31.2043 8.19 31.7503 8.19C32.3243 8.19 32.8143 8.442 33.0663 8.988L34.3403 8.274C33.8503 7.35 32.8983 6.818 31.7503 6.818C30.3223 6.818 29.1883 7.644 29.1883 8.96C29.1883 11.466 32.9543 10.766 32.9543 12.012C32.9543 12.572 32.4363 12.796 31.7643 12.796C30.9943 12.796 30.4343 12.418 30.2103 11.788L28.9083 12.544C29.3563 13.552 30.3643 14.182 31.7643 14.182C33.2763 14.182 34.4943 13.426 34.4943 12.026C34.4943 9.436 30.7283 10.206 30.7283 8.932ZM39.456 8.456V7H37.72V5.04L36.208 5.488V7H34.92V8.456H36.208V11.816C36.208 13.636 37.132 14.28 39.456 14V12.642C38.308 12.698 37.72 12.712 37.72 11.816V8.456H39.456ZM41.9255 8.932C41.9255 8.428 42.4015 8.19 42.9475 8.19C43.5215 8.19 44.0115 8.442 44.2635 8.988L45.5375 8.274C45.0475 7.35 44.0955 6.818 42.9475 6.818C41.5195 6.818 40.3855 7.644 40.3855 8.96C40.3855 11.466 44.1515 10.766 44.1515 12.012C44.1515 12.572 43.6335 12.796 42.9615 12.796C42.1915 12.796 41.6315 12.418 41.4075 11.788L40.1055 12.544C40.5535 13.552 41.5615 14.182 42.9615 14.182C44.4735 14.182 45.6915 13.426 45.6915 12.026C45.6915 9.436 41.9255 10.206 41.9255 8.932ZM48.0329 11.144H53.6049C53.6329 10.948 53.6609 10.724 53.6609 10.514C53.6609 8.498 52.2329 6.818 50.1469 6.818C47.9489 6.818 46.4509 8.428 46.4509 10.5C46.4509 12.6 47.9489 14.182 50.2589 14.182C51.6309 14.182 52.6809 13.608 53.3249 12.656L52.0789 11.928C51.7429 12.418 51.1129 12.796 50.2729 12.796C49.1529 12.796 48.2709 12.236 48.0329 11.144ZM48.0189 9.912C48.2289 8.862 48.9989 8.19 50.1329 8.19C51.0429 8.19 51.9249 8.708 52.1349 9.912H48.0189ZM54.9914 14H56.5034V3.78H54.9914V14ZM58.259 14H59.771V3.78H58.259V14ZM62.2825 5.95C62.8145 5.95 63.2485 5.502 63.2485 4.984C63.2485 4.452 62.8145 4.018 62.2825 4.018C61.7505 4.018 61.3165 4.452 61.3165 4.984C61.3165 5.502 61.7505 5.95 62.2825 5.95ZM61.5265 14H63.0385V7H61.5265V14ZM68.4761 6.818C67.5241 6.818 66.7681 7.168 66.3061 7.896V7H64.7941V14H66.3061V10.248C66.3061 8.82 67.0901 8.232 68.0841 8.232C69.0361 8.232 69.6521 8.792 69.6521 9.856V14H71.1641V9.702C71.1641 7.882 70.0441 6.818 68.4761 6.818ZM78.3642 7V8.036C77.8322 7.28 77.0062 6.818 75.9282 6.818C73.9542 6.818 72.4002 8.428 72.4002 10.43C72.4002 12.432 73.9542 14.042 75.9282 14.042C77.0062 14.042 77.8322 13.58 78.3642 12.824V13.678C78.3642 14.896 77.5802 15.61 76.2782 15.61C75.0602 15.61 74.5422 15.134 74.2342 14.532L72.9322 15.288C73.5202 16.408 74.7102 16.982 76.2502 16.982C78.0842 16.982 79.8482 15.932 79.8482 13.678V7H78.3642ZM76.1382 12.628C74.8642 12.628 73.9122 11.69 73.9122 10.43C73.9122 9.17 74.8642 8.232 76.1382 8.232C77.4122 8.232 78.3642 9.17 78.3642 10.43C78.3642 11.69 77.4122 12.628 76.1382 12.628Z" fill="white"/>
<defs>
<linearGradient id="paint0_linear_6408_84039" x1="-1.0215" y1="7.50002" x2="101.634" y2="11.152" gradientUnits="userSpaceOnUse">
<stop stop-color="#8173F7"/>
<stop offset="1" stop-color="#2D1BC9"/>
</linearGradient>
</defs>
</svg>
