<svg width="45" height="44" viewBox="0 0 45 44" fill="none" xmlns="http://www.w3.org/2000/svg">
<rect x="0.5" width="44" height="44" rx="22" fill="#F1EFFF"/>
<path d="M10.125 27.1989V25.4185H13.3637C12.8498 25.6619 12.4087 26.0356 12.0842 26.5024C11.7597 26.9693 11.5631 27.513 11.514 28.0794H11.0055C10.8899 28.0794 10.7754 28.0567 10.6686 28.0124C10.5617 27.9681 10.4647 27.9033 10.3829 27.8215C10.3011 27.7398 10.2363 27.6427 10.192 27.5358C10.1478 27.429 10.125 27.3145 10.125 27.1989ZM31.6451 28.3544C31.6451 27.9292 31.519 27.5134 31.2827 27.1598C31.0465 26.8062 30.7107 26.5306 30.3178 26.3679C29.9249 26.2051 29.4925 26.1626 29.0754 26.2455C28.6583 26.3285 28.2752 26.5333 27.9745 26.834C27.6737 27.1347 27.469 27.5178 27.386 27.9349C27.303 28.352 27.3456 28.7844 27.5084 29.1773C27.6711 29.5702 27.9467 29.906 28.3003 30.1423C28.6539 30.3785 29.0696 30.5047 29.4949 30.5047C29.7773 30.5047 30.0569 30.449 30.3178 30.341C30.5786 30.2329 30.8157 30.0745 31.0153 29.8749C31.215 29.6752 31.3734 29.4382 31.4815 29.1773C31.5895 28.9164 31.6451 28.6368 31.6451 28.3544ZM12.6 28.3544C12.6 28.7797 12.7261 29.1954 12.9624 29.549C13.1986 29.9026 13.5345 30.1782 13.9274 30.341C14.3203 30.5037 14.7526 30.5463 15.1697 30.4633C15.5868 30.3804 15.9699 30.1756 16.2707 29.8749C16.5714 29.5742 16.7762 29.191 16.8591 28.7739C16.9421 28.3568 16.8995 27.9245 16.7368 27.5316C16.574 27.1387 16.2984 26.8028 15.9448 26.5666C15.5912 26.3303 15.1755 26.2042 14.7502 26.2042C14.4679 26.2042 14.1882 26.2598 13.9274 26.3679C13.6665 26.4759 13.4295 26.6343 13.2298 26.834C13.0301 27.0337 12.8717 27.2707 12.7637 27.5316C12.6556 27.7924 12.6 28.0721 12.6 28.3544ZM34.875 25.1815C34.875 26.3277 34.6908 27.5168 34.451 27.9364C34.4238 27.9811 34.3854 28.0178 34.3396 28.0429C34.2938 28.068 34.2422 28.0806 34.19 28.0794H32.73C32.6622 27.268 32.292 26.5117 31.6927 25.9604C31.0934 25.4091 30.3089 25.1031 29.4946 25.1031C28.6804 25.1031 27.8958 25.4091 27.2966 25.9604C26.6973 26.5117 26.3271 27.268 26.2593 28.0794H17.9873C17.9377 27.5129 17.7408 26.9691 17.4161 26.5021C17.0914 26.0352 16.6503 25.6612 16.1365 25.4174H25.9705L25.9705 23.5804V18.1803H26.4655C29.6294 18.1803 31.7227 19.239 32.5191 21.2423L33.3183 23.4954C33.983 23.8547 34.875 24.4693 34.875 25.1815ZM26.9604 23.3605H32.2201L31.5926 21.5906C30.8656 19.7631 28.7672 19.2535 26.9604 19.1801V23.3605ZM24.8705 24.3174H10.125V14.6306C10.125 14.397 10.2178 14.173 10.3829 14.0079C10.548 13.8428 10.772 13.75 11.0055 13.75H23.99C24.2235 13.75 24.4475 13.8428 24.6126 14.0079C24.7777 14.173 24.8705 14.397 24.8705 14.6306V24.3174ZM20.5511 17.0581C20.4222 16.9292 20.2473 16.8567 20.065 16.8567C19.8827 16.8567 19.7079 16.9292 19.5789 17.0581L16.6227 20.0142L15.5279 18.9195C15.4641 18.8555 15.3883 18.8047 15.3049 18.77C15.2214 18.7353 15.1319 18.7174 15.0415 18.7173C14.9511 18.7173 14.8616 18.735 14.7781 18.7696C14.6946 18.8041 14.6187 18.8548 14.5548 18.9187C14.4909 18.9826 14.4402 19.0585 14.4056 19.1421C14.3711 19.2256 14.3533 19.3151 14.3534 19.4055C14.3535 19.4959 14.3714 19.5854 14.4061 19.6688C14.4408 19.7523 14.4916 19.8281 14.5557 19.8919L16.1366 21.4727C16.2655 21.6017 16.4404 21.6741 16.6227 21.6741C16.805 21.6741 16.9799 21.6016 17.1088 21.4727L20.5511 18.0303C20.615 17.9664 20.6656 17.8906 20.7001 17.8072C20.7347 17.7238 20.7525 17.6344 20.7525 17.5442C20.7525 17.4539 20.7347 17.3645 20.7001 17.2811C20.6656 17.1977 20.6149 17.1219 20.5511 17.0581Z" fill="url(#paint0_linear_4409_10631)"/>
<defs>
<linearGradient id="paint0_linear_4409_10631" x1="18.3049" y1="17.1161" x2="27.7752" y2="38.0598" gradientUnits="userSpaceOnUse">
<stop stop-color="#5A4BDA"/>
<stop offset="1" stop-color="#5A4BDA" stop-opacity="0"/>
</linearGradient>
</defs>
</svg>
