<svg width="1440" height="594" viewBox="0 0 1440 594" fill="none" xmlns="http://www.w3.org/2000/svg">
<g clip-path="url(#clip0_2309_7231)">
<rect width="1440" height="594" fill="#140D52"/>
<g clip-path="url(#clip1_2309_7231)">
<path d="M1201.96 99.42C1203.04 99.42 1203.92 98.5425 1203.92 97.46C1203.92 96.3775 1203.04 95.5 1201.96 95.5C1200.88 95.5 1200 96.3775 1200 97.46C1200 98.5425 1200.88 99.42 1201.96 99.42Z" fill="#D2CCFF"/>
<path d="M1201.96 112.04C1203.04 112.04 1203.92 111.163 1203.92 110.08C1203.92 108.998 1203.04 108.12 1201.96 108.12C1200.88 108.12 1200 108.998 1200 110.08C1200 111.163 1200.88 112.04 1201.96 112.04Z" fill="#D2CCFF"/>
<path d="M1219.88 99.42C1220.96 99.42 1221.84 98.5425 1221.84 97.46C1221.84 96.3775 1220.96 95.5 1219.88 95.5C1218.8 95.5 1217.92 96.3775 1217.92 97.46C1217.92 98.5425 1218.8 99.42 1219.88 99.42Z" fill="#D2CCFF"/>
<path d="M1219.88 112.04C1220.96 112.04 1221.84 111.163 1221.84 110.08C1221.84 108.998 1220.96 108.12 1219.88 108.12C1218.8 108.12 1217.92 108.998 1217.92 110.08C1217.92 111.163 1218.8 112.04 1219.88 112.04Z" fill="#D2CCFF"/>
<path d="M1237.8 99.42C1238.88 99.42 1239.76 98.5425 1239.76 97.46C1239.76 96.3775 1238.88 95.5 1237.8 95.5C1236.72 95.5 1235.84 96.3775 1235.84 97.46C1235.84 98.5425 1236.72 99.42 1237.8 99.42Z" fill="#D2CCFF"/>
<path d="M1237.8 112.04C1238.88 112.04 1239.76 111.163 1239.76 110.08C1239.76 108.998 1238.88 108.12 1237.8 108.12C1236.72 108.12 1235.84 108.998 1235.84 110.08C1235.84 111.163 1236.72 112.04 1237.8 112.04Z" fill="#D2CCFF"/>
<path d="M1255.72 99.42C1256.8 99.42 1257.68 98.5425 1257.68 97.46C1257.68 96.3775 1256.8 95.5 1255.72 95.5C1254.64 95.5 1253.76 96.3775 1253.76 97.46C1253.76 98.5425 1254.64 99.42 1255.72 99.42Z" fill="#D2CCFF"/>
<path d="M1255.72 112.04C1256.8 112.04 1257.68 111.163 1257.68 110.08C1257.68 108.998 1256.8 108.12 1255.72 108.12C1254.64 108.12 1253.76 108.998 1253.76 110.08C1253.76 111.163 1254.64 112.04 1255.72 112.04Z" fill="#D2CCFF"/>
<path d="M1273.64 99.42C1274.72 99.42 1275.6 98.5425 1275.6 97.46C1275.6 96.3775 1274.72 95.5 1273.64 95.5C1272.56 95.5 1271.68 96.3775 1271.68 97.46C1271.68 98.5425 1272.56 99.42 1273.64 99.42Z" fill="#D2CCFF"/>
<path d="M1273.64 112.04C1274.72 112.04 1275.6 111.163 1275.6 110.08C1275.6 108.998 1274.72 108.12 1273.64 108.12C1272.56 108.12 1271.68 108.998 1271.68 110.08C1271.68 111.163 1272.56 112.04 1273.64 112.04Z" fill="#D2CCFF"/>
<path d="M1291.56 99.42C1292.64 99.42 1293.52 98.5425 1293.52 97.46C1293.52 96.3775 1292.64 95.5 1291.56 95.5C1290.48 95.5 1289.6 96.3775 1289.6 97.46C1289.6 98.5425 1290.48 99.42 1291.56 99.42Z" fill="#D2CCFF"/>
<path d="M1291.56 112.04C1292.64 112.04 1293.52 111.163 1293.52 110.08C1293.52 108.998 1292.64 108.12 1291.56 108.12C1290.48 108.12 1289.6 108.998 1289.6 110.08C1289.6 111.163 1290.48 112.04 1291.56 112.04Z" fill="#D2CCFF"/>
<path d="M1309.48 99.42C1310.56 99.42 1311.44 98.5425 1311.44 97.46C1311.44 96.3775 1310.56 95.5 1309.48 95.5C1308.4 95.5 1307.52 96.3775 1307.52 97.46C1307.52 98.5425 1308.4 99.42 1309.48 99.42Z" fill="#D2CCFF"/>
<path d="M1309.48 112.04C1310.56 112.04 1311.44 111.163 1311.44 110.08C1311.44 108.998 1310.56 108.12 1309.48 108.12C1308.4 108.12 1307.52 108.998 1307.52 110.08C1307.52 111.163 1308.4 112.04 1309.48 112.04Z" fill="#D2CCFF"/>
</g>
<g clip-path="url(#clip2_2309_7231)">
<path d="M1201.96 125.96C1203.04 125.96 1203.92 125.083 1203.92 124C1203.92 122.918 1203.04 122.04 1201.96 122.04C1200.88 122.04 1200 122.918 1200 124C1200 125.083 1200.88 125.96 1201.96 125.96Z" fill="#D2CCFF"/>
<path d="M1201.96 138.58C1203.04 138.58 1203.92 137.703 1203.92 136.62C1203.92 135.538 1203.04 134.66 1201.96 134.66C1200.88 134.66 1200 135.538 1200 136.62C1200 137.703 1200.88 138.58 1201.96 138.58Z" fill="#D2CCFF"/>
<path d="M1219.88 125.96C1220.96 125.96 1221.84 125.083 1221.84 124C1221.84 122.918 1220.96 122.04 1219.88 122.04C1218.8 122.04 1217.92 122.918 1217.92 124C1217.92 125.083 1218.8 125.96 1219.88 125.96Z" fill="#D2CCFF"/>
<path d="M1219.88 138.58C1220.96 138.58 1221.84 137.703 1221.84 136.62C1221.84 135.538 1220.96 134.66 1219.88 134.66C1218.8 134.66 1217.92 135.538 1217.92 136.62C1217.92 137.703 1218.8 138.58 1219.88 138.58Z" fill="#D2CCFF"/>
<path d="M1237.8 125.96C1238.88 125.96 1239.76 125.083 1239.76 124C1239.76 122.918 1238.88 122.04 1237.8 122.04C1236.72 122.04 1235.84 122.918 1235.84 124C1235.84 125.083 1236.72 125.96 1237.8 125.96Z" fill="#D2CCFF"/>
<path d="M1237.8 138.58C1238.88 138.58 1239.76 137.703 1239.76 136.62C1239.76 135.538 1238.88 134.66 1237.8 134.66C1236.72 134.66 1235.84 135.538 1235.84 136.62C1235.84 137.703 1236.72 138.58 1237.8 138.58Z" fill="#D2CCFF"/>
<path d="M1255.72 125.96C1256.8 125.96 1257.68 125.083 1257.68 124C1257.68 122.918 1256.8 122.04 1255.72 122.04C1254.64 122.04 1253.76 122.918 1253.76 124C1253.76 125.083 1254.64 125.96 1255.72 125.96Z" fill="#D2CCFF"/>
<path d="M1255.72 138.58C1256.8 138.58 1257.68 137.703 1257.68 136.62C1257.68 135.538 1256.8 134.66 1255.72 134.66C1254.64 134.66 1253.76 135.538 1253.76 136.62C1253.76 137.703 1254.64 138.58 1255.72 138.58Z" fill="#D2CCFF"/>
<path d="M1273.64 125.96C1274.72 125.96 1275.6 125.083 1275.6 124C1275.6 122.918 1274.72 122.04 1273.64 122.04C1272.56 122.04 1271.68 122.918 1271.68 124C1271.68 125.083 1272.56 125.96 1273.64 125.96Z" fill="#D2CCFF"/>
<path d="M1273.64 138.58C1274.72 138.58 1275.6 137.703 1275.6 136.62C1275.6 135.538 1274.72 134.66 1273.64 134.66C1272.56 134.66 1271.68 135.538 1271.68 136.62C1271.68 137.703 1272.56 138.58 1273.64 138.58Z" fill="#D2CCFF"/>
<path d="M1291.56 125.96C1292.64 125.96 1293.52 125.083 1293.52 124C1293.52 122.918 1292.64 122.04 1291.56 122.04C1290.48 122.04 1289.6 122.918 1289.6 124C1289.6 125.083 1290.48 125.96 1291.56 125.96Z" fill="#D2CCFF"/>
<path d="M1291.56 138.58C1292.64 138.58 1293.52 137.703 1293.52 136.62C1293.52 135.538 1292.64 134.66 1291.56 134.66C1290.48 134.66 1289.6 135.538 1289.6 136.62C1289.6 137.703 1290.48 138.58 1291.56 138.58Z" fill="#D2CCFF"/>
<path d="M1309.48 125.96C1310.56 125.96 1311.44 125.083 1311.44 124C1311.44 122.918 1310.56 122.04 1309.48 122.04C1308.4 122.04 1307.52 122.918 1307.52 124C1307.52 125.083 1308.4 125.96 1309.48 125.96Z" fill="#D2CCFF"/>
<path d="M1309.48 138.58C1310.56 138.58 1311.44 137.703 1311.44 136.62C1311.44 135.538 1310.56 134.66 1309.48 134.66C1308.4 134.66 1307.52 135.538 1307.52 136.62C1307.52 137.703 1308.4 138.58 1309.48 138.58Z" fill="#D2CCFF"/>
</g>
<g clip-path="url(#clip3_2309_7231)">
<path d="M1201.96 152.5C1203.04 152.5 1203.92 151.623 1203.92 150.54C1203.92 149.458 1203.04 148.58 1201.96 148.58C1200.88 148.58 1200 149.458 1200 150.54C1200 151.623 1200.88 152.5 1201.96 152.5Z" fill="#D2CCFF"/>
<path d="M1201.96 165.12C1203.04 165.12 1203.92 164.243 1203.92 163.16C1203.92 162.078 1203.04 161.2 1201.96 161.2C1200.88 161.2 1200 162.078 1200 163.16C1200 164.243 1200.88 165.12 1201.96 165.12Z" fill="#D2CCFF"/>
<path d="M1219.88 152.5C1220.96 152.5 1221.84 151.623 1221.84 150.54C1221.84 149.458 1220.96 148.58 1219.88 148.58C1218.8 148.58 1217.92 149.458 1217.92 150.54C1217.92 151.623 1218.8 152.5 1219.88 152.5Z" fill="#D2CCFF"/>
<path d="M1219.88 165.12C1220.96 165.12 1221.84 164.243 1221.84 163.16C1221.84 162.078 1220.96 161.2 1219.88 161.2C1218.8 161.2 1217.92 162.078 1217.92 163.16C1217.92 164.243 1218.8 165.12 1219.88 165.12Z" fill="#D2CCFF"/>
<path d="M1237.8 152.5C1238.88 152.5 1239.76 151.623 1239.76 150.54C1239.76 149.458 1238.88 148.58 1237.8 148.58C1236.72 148.58 1235.84 149.458 1235.84 150.54C1235.84 151.623 1236.72 152.5 1237.8 152.5Z" fill="#D2CCFF"/>
<path d="M1237.8 165.12C1238.88 165.12 1239.76 164.243 1239.76 163.16C1239.76 162.078 1238.88 161.2 1237.8 161.2C1236.72 161.2 1235.84 162.078 1235.84 163.16C1235.84 164.243 1236.72 165.12 1237.8 165.12Z" fill="#D2CCFF"/>
<path d="M1255.72 152.5C1256.8 152.5 1257.68 151.623 1257.68 150.54C1257.68 149.458 1256.8 148.58 1255.72 148.58C1254.64 148.58 1253.76 149.458 1253.76 150.54C1253.76 151.623 1254.64 152.5 1255.72 152.5Z" fill="#D2CCFF"/>
<path d="M1255.72 165.12C1256.8 165.12 1257.68 164.243 1257.68 163.16C1257.68 162.078 1256.8 161.2 1255.72 161.2C1254.64 161.2 1253.76 162.078 1253.76 163.16C1253.76 164.243 1254.64 165.12 1255.72 165.12Z" fill="#D2CCFF"/>
<path d="M1273.64 152.5C1274.72 152.5 1275.6 151.623 1275.6 150.54C1275.6 149.458 1274.72 148.58 1273.64 148.58C1272.56 148.58 1271.68 149.458 1271.68 150.54C1271.68 151.623 1272.56 152.5 1273.64 152.5Z" fill="#D2CCFF"/>
<path d="M1273.64 165.12C1274.72 165.12 1275.6 164.243 1275.6 163.16C1275.6 162.078 1274.72 161.2 1273.64 161.2C1272.56 161.2 1271.68 162.078 1271.68 163.16C1271.68 164.243 1272.56 165.12 1273.64 165.12Z" fill="#D2CCFF"/>
<path d="M1291.56 152.5C1292.64 152.5 1293.52 151.623 1293.52 150.54C1293.52 149.458 1292.64 148.58 1291.56 148.58C1290.48 148.58 1289.6 149.458 1289.6 150.54C1289.6 151.623 1290.48 152.5 1291.56 152.5Z" fill="#D2CCFF"/>
<path d="M1291.56 165.12C1292.64 165.12 1293.52 164.243 1293.52 163.16C1293.52 162.078 1292.64 161.2 1291.56 161.2C1290.48 161.2 1289.6 162.078 1289.6 163.16C1289.6 164.243 1290.48 165.12 1291.56 165.12Z" fill="#D2CCFF"/>
<path d="M1309.48 152.5C1310.56 152.5 1311.44 151.623 1311.44 150.54C1311.44 149.458 1310.56 148.58 1309.48 148.58C1308.4 148.58 1307.52 149.458 1307.52 150.54C1307.52 151.623 1308.4 152.5 1309.48 152.5Z" fill="#D2CCFF"/>
<path d="M1309.48 165.12C1310.56 165.12 1311.44 164.243 1311.44 163.16C1311.44 162.078 1310.56 161.2 1309.48 161.2C1308.4 161.2 1307.52 162.078 1307.52 163.16C1307.52 164.243 1308.4 165.12 1309.48 165.12Z" fill="#D2CCFF"/>
</g>
<path opacity="0.2" d="M-46.8701 597.927C-47.9936 591.521 -20.4449 493.43 72.2528 405.83C155.442 327.298 323.795 271.495 501.02 306.293C690.907 343.594 863.089 333.364 1006.03 304.371C1147.12 275.684 1248.42 218.817 1295.73 184.134C1398.34 109.149 1522.2 138.423 1458.42 230.577C1428.44 273.473 1368.49 290.176 1267.67 303.55C1162.29 317.529 1009.77 322.212 791.829 360.957C581.632 398.395 340.398 464.235 198.474 532.962C47.4219 606.154 -37.9262 653.892 -46.8701 597.927Z" fill="#D9DCE1"/>
<g clip-path="url(#clip4_2309_7231)">
<path d="M134.96 514.42C136.042 514.42 136.92 513.542 136.92 512.46C136.92 511.378 136.042 510.5 134.96 510.5C133.878 510.5 133 511.378 133 512.46C133 513.542 133.878 514.42 134.96 514.42Z" fill="#D2CCFF"/>
<path d="M134.96 526.34C136.042 526.34 136.92 525.462 136.92 524.38C136.92 523.297 136.042 522.42 134.96 522.42C133.878 522.42 133 523.297 133 524.38C133 525.462 133.878 526.34 134.96 526.34Z" fill="#D2CCFF"/>
<path d="M152.88 514.42C153.962 514.42 154.84 513.542 154.84 512.46C154.84 511.378 153.962 510.5 152.88 510.5C151.797 510.5 150.92 511.378 150.92 512.46C150.92 513.542 151.797 514.42 152.88 514.42Z" fill="#D2CCFF"/>
<path d="M152.88 526.34C153.962 526.34 154.84 525.462 154.84 524.38C154.84 523.297 153.962 522.42 152.88 522.42C151.797 522.42 150.92 523.297 150.92 524.38C150.92 525.462 151.797 526.34 152.88 526.34Z" fill="#D2CCFF"/>
<path d="M170.8 514.42C171.882 514.42 172.76 513.542 172.76 512.46C172.76 511.378 171.882 510.5 170.8 510.5C169.717 510.5 168.84 511.378 168.84 512.46C168.84 513.542 169.717 514.42 170.8 514.42Z" fill="#D2CCFF"/>
<path d="M170.8 527.04C171.882 527.04 172.76 526.163 172.76 525.08C172.76 523.998 171.882 523.12 170.8 523.12C169.717 523.12 168.84 523.998 168.84 525.08C168.84 526.163 169.717 527.04 170.8 527.04Z" fill="#D2CCFF"/>
<path d="M188.72 514.42C189.802 514.42 190.68 513.542 190.68 512.46C190.68 511.378 189.802 510.5 188.72 510.5C187.637 510.5 186.76 511.378 186.76 512.46C186.76 513.542 187.637 514.42 188.72 514.42Z" fill="#D2CCFF"/>
<path d="M188.72 527.04C189.802 527.04 190.68 526.163 190.68 525.08C190.68 523.998 189.802 523.12 188.72 523.12C187.637 523.12 186.76 523.998 186.76 525.08C186.76 526.163 187.637 527.04 188.72 527.04Z" fill="#D2CCFF"/>
<path d="M206.64 514.42C207.723 514.42 208.6 513.542 208.6 512.46C208.6 511.378 207.723 510.5 206.64 510.5C205.558 510.5 204.68 511.378 204.68 512.46C204.68 513.542 205.558 514.42 206.64 514.42Z" fill="#D2CCFF"/>
<path d="M206.64 527.04C207.723 527.04 208.6 526.163 208.6 525.08C208.6 523.998 207.723 523.12 206.64 523.12C205.558 523.12 204.68 523.998 204.68 525.08C204.68 526.163 205.558 527.04 206.64 527.04Z" fill="#D2CCFF"/>
<path d="M224.56 514.42C225.643 514.42 226.52 513.542 226.52 512.46C226.52 511.378 225.643 510.5 224.56 510.5C223.478 510.5 222.6 511.378 222.6 512.46C222.6 513.542 223.478 514.42 224.56 514.42Z" fill="#D2CCFF"/>
<path d="M224.56 527.04C225.643 527.04 226.52 526.163 226.52 525.08C226.52 523.998 225.643 523.12 224.56 523.12C223.478 523.12 222.6 523.998 222.6 525.08C222.6 526.163 223.478 527.04 224.56 527.04Z" fill="#D2CCFF"/>
<path d="M242.48 514.42C243.562 514.42 244.44 513.542 244.44 512.46C244.44 511.378 243.562 510.5 242.48 510.5C241.398 510.5 240.52 511.378 240.52 512.46C240.52 513.542 241.398 514.42 242.48 514.42Z" fill="#D2CCFF"/>
<path d="M242.48 527.04C243.562 527.04 244.44 526.163 244.44 525.08C244.44 523.998 243.562 523.12 242.48 523.12C241.398 523.12 240.52 523.998 240.52 525.08C240.52 526.163 241.398 527.04 242.48 527.04Z" fill="#D2CCFF"/>
</g>
<g clip-path="url(#clip5_2309_7231)">
<path d="M134.96 538.96C136.042 538.96 136.92 538.083 136.92 537C136.92 535.918 136.042 535.04 134.96 535.04C133.878 535.04 133 535.918 133 537C133 538.083 133.878 538.96 134.96 538.96Z" fill="#D2CCFF"/>
<path d="M134.96 550.88C136.042 550.88 136.92 550.002 136.92 548.92C136.92 547.837 136.042 546.96 134.96 546.96C133.878 546.96 133 547.837 133 548.92C133 550.002 133.878 550.88 134.96 550.88Z" fill="#D2CCFF"/>
<path d="M152.88 538.96C153.962 538.96 154.84 538.083 154.84 537C154.84 535.918 153.962 535.04 152.88 535.04C151.797 535.04 150.92 535.918 150.92 537C150.92 538.083 151.797 538.96 152.88 538.96Z" fill="#D2CCFF"/>
<path d="M152.88 550.88C153.962 550.88 154.84 550.002 154.84 548.92C154.84 547.837 153.962 546.96 152.88 546.96C151.797 546.96 150.92 547.837 150.92 548.92C150.92 550.002 151.797 550.88 152.88 550.88Z" fill="#D2CCFF"/>
<path d="M170.8 538.96C171.882 538.96 172.76 538.083 172.76 537C172.76 535.918 171.882 535.04 170.8 535.04C169.717 535.04 168.84 535.918 168.84 537C168.84 538.083 169.717 538.96 170.8 538.96Z" fill="#D2CCFF"/>
<path d="M170.8 551.58C171.882 551.58 172.76 550.703 172.76 549.62C172.76 548.538 171.882 547.66 170.8 547.66C169.717 547.66 168.84 548.538 168.84 549.62C168.84 550.703 169.717 551.58 170.8 551.58Z" fill="#D2CCFF"/>
<path d="M188.72 538.96C189.802 538.96 190.68 538.083 190.68 537C190.68 535.918 189.802 535.04 188.72 535.04C187.637 535.04 186.76 535.918 186.76 537C186.76 538.083 187.637 538.96 188.72 538.96Z" fill="#D2CCFF"/>
<path d="M188.72 551.58C189.802 551.58 190.68 550.703 190.68 549.62C190.68 548.538 189.802 547.66 188.72 547.66C187.637 547.66 186.76 548.538 186.76 549.62C186.76 550.703 187.637 551.58 188.72 551.58Z" fill="#D2CCFF"/>
<path d="M206.64 538.96C207.723 538.96 208.6 538.083 208.6 537C208.6 535.918 207.723 535.04 206.64 535.04C205.558 535.04 204.68 535.918 204.68 537C204.68 538.083 205.558 538.96 206.64 538.96Z" fill="#D2CCFF"/>
<path d="M206.64 551.58C207.723 551.58 208.6 550.703 208.6 549.62C208.6 548.538 207.723 547.66 206.64 547.66C205.558 547.66 204.68 548.538 204.68 549.62C204.68 550.703 205.558 551.58 206.64 551.58Z" fill="#D2CCFF"/>
<path d="M224.56 538.96C225.643 538.96 226.52 538.083 226.52 537C226.52 535.918 225.643 535.04 224.56 535.04C223.478 535.04 222.6 535.918 222.6 537C222.6 538.083 223.478 538.96 224.56 538.96Z" fill="#D2CCFF"/>
<path d="M224.56 551.58C225.643 551.58 226.52 550.703 226.52 549.62C226.52 548.538 225.643 547.66 224.56 547.66C223.478 547.66 222.6 548.538 222.6 549.62C222.6 550.703 223.478 551.58 224.56 551.58Z" fill="#D2CCFF"/>
<path d="M242.48 538.96C243.562 538.96 244.44 538.083 244.44 537C244.44 535.918 243.562 535.04 242.48 535.04C241.398 535.04 240.52 535.918 240.52 537C240.52 538.083 241.398 538.96 242.48 538.96Z" fill="#D2CCFF"/>
<path d="M242.48 551.58C243.562 551.58 244.44 550.703 244.44 549.62C244.44 548.538 243.562 547.66 242.48 547.66C241.398 547.66 240.52 548.538 240.52 549.62C240.52 550.703 241.398 551.58 242.48 551.58Z" fill="#D2CCFF"/>
</g>
<g clip-path="url(#clip6_2309_7231)">
<path d="M134.96 563.5C136.042 563.5 136.92 562.623 136.92 561.54C136.92 560.458 136.042 559.58 134.96 559.58C133.878 559.58 133 560.458 133 561.54C133 562.623 133.878 563.5 134.96 563.5Z" fill="#D2CCFF"/>
<path d="M134.96 575.42C136.042 575.42 136.92 574.542 136.92 573.46C136.92 572.378 136.042 571.5 134.96 571.5C133.878 571.5 133 572.378 133 573.46C133 574.542 133.878 575.42 134.96 575.42Z" fill="#D2CCFF"/>
<path d="M152.88 563.5C153.962 563.5 154.84 562.623 154.84 561.54C154.84 560.458 153.962 559.58 152.88 559.58C151.797 559.58 150.92 560.458 150.92 561.54C150.92 562.623 151.797 563.5 152.88 563.5Z" fill="#D2CCFF"/>
<path d="M152.88 575.42C153.962 575.42 154.84 574.542 154.84 573.46C154.84 572.378 153.962 571.5 152.88 571.5C151.797 571.5 150.92 572.378 150.92 573.46C150.92 574.542 151.797 575.42 152.88 575.42Z" fill="#D2CCFF"/>
<path d="M170.8 563.5C171.882 563.5 172.76 562.623 172.76 561.54C172.76 560.458 171.882 559.58 170.8 559.58C169.717 559.58 168.84 560.458 168.84 561.54C168.84 562.623 169.717 563.5 170.8 563.5Z" fill="#D2CCFF"/>
<path d="M170.8 575.42C171.882 575.42 172.76 574.542 172.76 573.46C172.76 572.378 171.882 571.5 170.8 571.5C169.717 571.5 168.84 572.378 168.84 573.46C168.84 574.542 169.717 575.42 170.8 575.42Z" fill="#D2CCFF"/>
<path d="M188.72 563.5C189.802 563.5 190.68 562.623 190.68 561.54C190.68 560.458 189.802 559.58 188.72 559.58C187.637 559.58 186.76 560.458 186.76 561.54C186.76 562.623 187.637 563.5 188.72 563.5Z" fill="#D2CCFF"/>
<path d="M188.72 575.42C189.802 575.42 190.68 574.542 190.68 573.46C190.68 572.378 189.802 571.5 188.72 571.5C187.637 571.5 186.76 572.378 186.76 573.46C186.76 574.542 187.637 575.42 188.72 575.42Z" fill="#D2CCFF"/>
<path d="M206.64 563.5C207.723 563.5 208.6 562.623 208.6 561.54C208.6 560.458 207.723 559.58 206.64 559.58C205.558 559.58 204.68 560.458 204.68 561.54C204.68 562.623 205.558 563.5 206.64 563.5Z" fill="#D2CCFF"/>
<path d="M206.64 575.42C207.723 575.42 208.6 574.542 208.6 573.46C208.6 572.378 207.723 571.5 206.64 571.5C205.558 571.5 204.68 572.378 204.68 573.46C204.68 574.542 205.558 575.42 206.64 575.42Z" fill="#D2CCFF"/>
<path d="M224.56 563.5C225.643 563.5 226.52 562.623 226.52 561.54C226.52 560.458 225.643 559.58 224.56 559.58C223.478 559.58 222.6 560.458 222.6 561.54C222.6 562.623 223.478 563.5 224.56 563.5Z" fill="#D2CCFF"/>
<path d="M224.56 575.42C225.643 575.42 226.52 574.542 226.52 573.46C226.52 572.378 225.643 571.5 224.56 571.5C223.478 571.5 222.6 572.378 222.6 573.46C222.6 574.542 223.478 575.42 224.56 575.42Z" fill="#D2CCFF"/>
<path d="M242.48 563.5C243.562 563.5 244.44 562.623 244.44 561.54C244.44 560.458 243.562 559.58 242.48 559.58C241.398 559.58 240.52 560.458 240.52 561.54C240.52 562.623 241.398 563.5 242.48 563.5Z" fill="#D2CCFF"/>
<path d="M242.48 575.42C243.562 575.42 244.44 574.542 244.44 573.46C244.44 572.378 243.562 571.5 242.48 571.5C241.398 571.5 240.52 572.378 240.52 573.46C240.52 574.542 241.398 575.42 242.48 575.42Z" fill="#D2CCFF"/>
</g>
</g>
<defs>
<clipPath id="clip0_2309_7231">
<rect width="1440" height="594" fill="white"/>
</clipPath>
<clipPath id="clip1_2309_7231">
<rect width="111.44" height="16.54" fill="white" transform="translate(1200 95.5)"/>
</clipPath>
<clipPath id="clip2_2309_7231">
<rect width="111.44" height="16.54" fill="white" transform="translate(1200 122.04)"/>
</clipPath>
<clipPath id="clip3_2309_7231">
<rect width="111.44" height="16.54" fill="white" transform="translate(1200 148.58)"/>
</clipPath>
<clipPath id="clip4_2309_7231">
<rect width="111.44" height="16.54" fill="white" transform="translate(133 510.5)"/>
</clipPath>
<clipPath id="clip5_2309_7231">
<rect width="111.44" height="16.54" fill="white" transform="translate(133 535.04)"/>
</clipPath>
<clipPath id="clip6_2309_7231">
<rect width="111.44" height="15.8399" fill="white" transform="translate(133 559.58)"/>
</clipPath>
</defs>
</svg>
