<svg width="104" height="25" viewBox="0 0 104 25" fill="none" xmlns="http://www.w3.org/2000/svg">
<path d="M0 19C0 16.2386 2.23858 14 5 14V14V25V25C2.23858 25 0 22.7614 0 20V19Z" fill="#B17212"/>
<path d="M104 0H4C1.79086 0 -7.63747e-07 1.79086 -7.63747e-07 4V20L2.40305 18.9877C3.42745 18.5562 4.53054 18.3429 5.64197 18.3614L104 20L94.9565 10L104 0Z" fill="url(#paint0_linear_13559_96927)"/>
<path d="M16.86 4.2H18.47V14H17.21L12.59 7.35V14H10.98V4.2H12.24L16.86 10.85V4.2ZM21.5193 11.144C21.7573 12.236 22.6393 12.796 23.7593 12.796C24.5993 12.796 25.2293 12.418 25.5653 11.928L26.8113 12.656C26.1673 13.608 25.1173 14.182 23.7453 14.182C21.4353 14.182 19.9373 12.6 19.9373 10.5C19.9373 8.428 21.4353 6.818 23.6333 6.818C25.7193 6.818 27.1473 8.498 27.1473 10.514C27.1473 10.724 27.1193 10.948 27.0913 11.144H21.5193ZM21.5053 9.912H25.6213C25.4113 8.708 24.5293 8.19 23.6193 8.19C22.4853 8.19 21.7153 8.862 21.5053 9.912ZM36.2683 7H37.8643L35.6663 14H34.1823L32.7263 9.282L31.2563 14H29.7723L27.5743 7H29.1703L30.5283 11.83L31.9983 7H33.4403L34.8963 11.83L36.2683 7ZM48.9597 14L48.2737 12.026H44.1017L43.4157 14H41.6657L45.2217 4.2H47.1537L50.6957 14H48.9597ZM44.6337 10.514H47.7417L46.1877 6.09L44.6337 10.514ZM53.1635 8.176C53.5835 7.224 54.4375 6.874 55.3195 6.874V8.512C54.3255 8.442 53.1635 8.904 53.1635 10.472V14H51.6515V7H53.1635V8.176ZM57.9487 8.176C58.3687 7.224 59.2227 6.874 60.1047 6.874V8.512C59.1107 8.442 57.9487 8.904 57.9487 10.472V14H56.4367V7H57.9487V8.176ZM61.9778 5.95C61.4458 5.95 61.0118 5.502 61.0118 4.984C61.0118 4.452 61.4458 4.018 61.9778 4.018C62.5098 4.018 62.9438 4.452 62.9438 4.984C62.9438 5.502 62.5098 5.95 61.9778 5.95ZM61.2218 14V7H62.7338V14H61.2218ZM69.2354 7H70.8874L68.1574 14H66.4074L63.6774 7H65.3294L67.2894 12.32L69.2354 7ZM77.1155 7H78.6275V14H77.1155V12.992C76.5835 13.734 75.7575 14.182 74.6655 14.182C72.7615 14.182 71.1795 12.572 71.1795 10.5C71.1795 8.414 72.7615 6.818 74.6655 6.818C75.7575 6.818 76.5835 7.266 77.1155 7.994V7ZM74.9035 12.74C76.1635 12.74 77.1155 11.802 77.1155 10.5C77.1155 9.198 76.1635 8.26 74.9035 8.26C73.6435 8.26 72.6915 9.198 72.6915 10.5C72.6915 11.802 73.6435 12.74 74.9035 12.74ZM80.3898 14V3.78H81.9018V14H80.3898ZM84.9744 8.932C84.9744 10.206 88.7404 9.436 88.7404 12.026C88.7404 13.426 87.5224 14.182 86.0104 14.182C84.6104 14.182 83.6024 13.552 83.1544 12.544L84.4564 11.788C84.6804 12.418 85.2404 12.796 86.0104 12.796C86.6824 12.796 87.2004 12.572 87.2004 12.012C87.2004 10.766 83.4344 11.466 83.4344 8.96C83.4344 7.644 84.5684 6.818 85.9964 6.818C87.1444 6.818 88.0964 7.35 88.5864 8.274L87.3124 8.988C87.0604 8.442 86.5704 8.19 85.9964 8.19C85.4504 8.19 84.9744 8.428 84.9744 8.932Z" fill="white"/>
<defs>
<linearGradient id="paint0_linear_13559_96927" x1="4.06802e-06" y1="-9.07741e-06" x2="92.2043" y2="41.3211" gradientUnits="userSpaceOnUse">
<stop stop-color="#F5C67E"/>
<stop offset="1" stop-color="#FF9900"/>
</linearGradient>
</defs>
</svg>
