<svg width="92" height="25" viewBox="0 0 92 25" fill="none" xmlns="http://www.w3.org/2000/svg">
<path d="M0 19C0 16.2386 2.23858 14 5 14V14V25V25C2.23858 25 0 22.7614 0 20V19Z" fill="#FFBB00"/>
<path d="M92 0H4C1.79086 0 3.11157e-06 1.79086 3.11157e-06 4V20L1.79644 19.1446C2.91678 18.6111 4.14587 18.3455 5.38653 18.3689L92 20L84 10L92 0Z" fill="url(#paint0_linear_7704_114123)"/>
<path d="M18.592 4.2H14.98V14H16.59V10.64H18.592C20.44 10.64 21.84 9.226 21.84 7.42C21.84 5.6 20.44 4.2 18.592 4.2ZM18.592 9.128H16.59V5.712H18.592C19.544 5.712 20.23 6.426 20.23 7.42C20.23 8.4 19.544 9.128 18.592 9.128ZM24.5151 8.176V7H23.0031V14H24.5151V10.472C24.5151 8.904 25.6771 8.442 26.6711 8.512V6.874C25.7891 6.874 24.9351 7.224 24.5151 8.176ZM28.6501 11.144H34.2221C34.2501 10.948 34.2781 10.724 34.2781 10.514C34.2781 8.498 32.8501 6.818 30.7641 6.818C28.5661 6.818 27.0681 8.428 27.0681 10.5C27.0681 12.6 28.5661 14.182 30.8761 14.182C32.2481 14.182 33.2981 13.608 33.9421 12.656L32.6961 11.928C32.3601 12.418 31.7301 12.796 30.8901 12.796C29.7701 12.796 28.8881 12.236 28.6501 11.144ZM28.6361 9.912C28.8461 8.862 29.6161 8.19 30.7501 8.19C31.6601 8.19 32.5421 8.708 32.7521 9.912H28.6361ZM35.7066 10.472H40.8866V9.016H35.7066V10.472ZM46.0493 14.182C48.1073 14.182 49.7453 12.572 49.7453 10.5C49.7453 8.414 48.1073 6.818 46.0493 6.818C44.0053 6.818 42.3533 8.414 42.3533 10.5C42.3533 12.572 44.0053 14.182 46.0493 14.182ZM46.0493 12.712C44.8173 12.712 43.8653 11.774 43.8653 10.5C43.8653 9.226 44.8173 8.288 46.0493 8.288C47.2813 8.288 48.2333 9.226 48.2333 10.5C48.2333 11.774 47.2813 12.712 46.0493 12.712ZM52.6245 8.176V7H51.1125V14H52.6245V10.472C52.6245 8.904 53.7865 8.442 54.7805 8.512V6.874C53.8985 6.874 53.0445 7.224 52.6245 8.176ZM61.1135 4.2V7.994C60.5815 7.266 59.7555 6.818 58.6635 6.818C56.7595 6.818 55.1775 8.414 55.1775 10.5C55.1775 12.572 56.7595 14.182 58.6635 14.182C59.7555 14.182 60.5815 13.734 61.1135 12.992V14H62.6255V4.2H61.1135ZM58.9015 12.74C57.6415 12.74 56.6895 11.802 56.6895 10.5C56.6895 9.198 57.6415 8.26 58.9015 8.26C60.1615 8.26 61.1135 9.198 61.1135 10.5C61.1135 11.802 60.1615 12.74 58.9015 12.74ZM65.5779 11.144H71.1499C71.1779 10.948 71.2059 10.724 71.2059 10.514C71.2059 8.498 69.7779 6.818 67.6919 6.818C65.4939 6.818 63.9959 8.428 63.9959 10.5C63.9959 12.6 65.4939 14.182 67.8039 14.182C69.1759 14.182 70.2259 13.608 70.8699 12.656L69.6239 11.928C69.2879 12.418 68.6579 12.796 67.8179 12.796C66.6979 12.796 65.8159 12.236 65.5779 11.144ZM65.5639 9.912C65.7739 8.862 66.5439 8.19 67.6779 8.19C68.5879 8.19 69.4699 8.708 69.6799 9.912H65.5639ZM74.0483 8.176V7H72.5363V14H74.0483V10.472C74.0483 8.904 75.2103 8.442 76.2043 8.512V6.874C75.3223 6.874 74.4683 7.224 74.0483 8.176Z" fill="#1B2124"/>
<defs>
<linearGradient id="paint0_linear_7704_114123" x1="-7.75904" y1="9.65518" x2="92" y2="9.65519" gradientUnits="userSpaceOnUse">
<stop stop-color="#FFEB00"/>
<stop offset="1" stop-color="#FFBB00"/>
</linearGradient>
</defs>
</svg>
