<svg width="44" height="44" viewBox="0 0 44 44" fill="none" xmlns="http://www.w3.org/2000/svg">
<rect width="44" height="44" rx="22" fill="#F1EFFF"/>
<path d="M30.6901 12.4471L22.4407 9.6973C22.1647 9.6009 21.8642 9.6009 21.5882 9.6973L13.3389 12.3784C13.0492 12.4691 12.7976 12.6532 12.6235 12.9019C12.4494 13.1506 12.3626 13.45 12.3764 13.7532V22.8413C12.3778 24.5025 12.7841 26.1382 13.5604 27.6069C14.3366 29.0755 15.4593 30.3327 16.8311 31.2694L21.2308 34.2667C21.4715 34.3767 21.7388 34.4149 22.0007 34.3767C22.2702 34.3746 22.5332 34.2933 22.7569 34.143L27.0878 31.2694C28.4852 30.3394 29.6307 29.0781 30.4224 27.598C31.214 26.1179 31.6272 24.4649 31.625 22.7863V13.7532C31.6257 13.465 31.5359 13.1838 31.3681 12.9494C31.2003 12.7151 30.9631 12.5393 30.6901 12.4471ZM25.7267 20.229L22.0007 23.8862C21.8734 24.0161 21.7215 24.1195 21.554 24.1903C21.3864 24.2611 21.2064 24.298 21.0245 24.2987C20.6619 24.2935 20.316 24.1453 20.0621 23.8862L18.2747 22.0026C18.0187 21.745 17.8749 21.3966 17.8749 21.0333C17.8749 20.6701 18.0187 20.3216 18.2747 20.064C18.4026 19.9352 18.5546 19.8329 18.7222 19.7631C18.8897 19.6933 19.0694 19.6573 19.2509 19.6573C19.4324 19.6573 19.6121 19.6933 19.7797 19.7631C19.9472 19.8329 20.0993 19.9352 20.2271 20.064L21.0795 20.9165L23.8293 18.1667C23.9575 18.0385 24.1097 17.9368 24.2772 17.8674C24.4447 17.798 24.6242 17.7623 24.8055 17.7623C24.9868 17.7623 25.1663 17.798 25.3338 17.8674C25.5013 17.9368 25.6535 18.0385 25.7817 18.1667C25.9099 18.2949 26.0116 18.447 26.0809 18.6145C26.1503 18.782 26.186 18.9616 26.186 19.1428C26.186 19.3241 26.1503 19.5037 26.0809 19.6711C26.0116 19.8386 25.9099 19.9908 25.7817 20.119L25.7267 20.229Z" fill="url(#paint0_linear_4409_10614)"/>
<defs>
<linearGradient id="paint0_linear_4409_10614" x1="18.7371" y1="14.6006" x2="37.1691" y2="36.049" gradientUnits="userSpaceOnUse">
<stop stop-color="#5A4BDA"/>
<stop offset="1" stop-color="#5A4BDA" stop-opacity="0"/>
</linearGradient>
</defs>
</svg>
