<svg width="87" height="25" viewBox="0 0 87 25" fill="none" xmlns="http://www.w3.org/2000/svg">
<path d="M0 19C0 16.2386 2.23858 14 5 14V25C2.23858 25 0 22.7614 0 20V19Z" fill="#155F3D"/>
<path d="M87 0H3.99999C1.79086 0 0 1.79086 0 4V20L1.53697 19.226C2.70119 18.6398 3.99104 18.3469 5.29428 18.3729L87 20L79.4348 10L87 0Z" fill="url(#paint0_linear_7537_113778)"/>
<path d="M22.35 4.2H15.21V5.74H17.982V14H19.592V5.74H22.35V4.2ZM24.0385 8.176V7H22.5265V14H24.0385V10.472C24.0385 8.904 25.2005 8.442 26.1945 8.512V6.874C25.3125 6.874 24.4585 7.224 24.0385 8.176ZM28.1736 11.144H33.7456C33.7736 10.948 33.8016 10.724 33.8016 10.514C33.8016 8.498 32.3736 6.818 30.2876 6.818C28.0896 6.818 26.5916 8.428 26.5916 10.5C26.5916 12.6 28.0896 14.182 30.3996 14.182C31.7716 14.182 32.8216 13.608 33.4656 12.656L32.2196 11.928C31.8836 12.418 31.2536 12.796 30.4136 12.796C29.2936 12.796 28.4116 12.236 28.1736 11.144ZM28.1596 9.912C28.3696 8.862 29.1396 8.19 30.2736 8.19C31.1836 8.19 32.0656 8.708 32.2756 9.912H28.1596ZM38.814 6.818C37.862 6.818 37.106 7.168 36.644 7.896V7H35.132V14H36.644V10.248C36.644 8.82 37.428 8.232 38.422 8.232C39.374 8.232 39.99 8.792 39.99 9.856V14H41.502V9.702C41.502 7.882 40.382 6.818 38.814 6.818ZM48.674 4.2V7.994C48.142 7.266 47.316 6.818 46.224 6.818C44.32 6.818 42.738 8.414 42.738 10.5C42.738 12.572 44.32 14.182 46.224 14.182C47.316 14.182 48.142 13.734 48.674 12.992V14H50.186V4.2H48.674ZM46.462 12.74C45.202 12.74 44.25 11.802 44.25 10.5C44.25 9.198 45.202 8.26 46.462 8.26C47.722 8.26 48.674 9.198 48.674 10.5C48.674 11.802 47.722 12.74 46.462 12.74ZM52.7044 5.95C53.2364 5.95 53.6704 5.502 53.6704 4.984C53.6704 4.452 53.2364 4.018 52.7044 4.018C52.1724 4.018 51.7384 4.452 51.7384 4.984C51.7384 5.502 52.1724 5.95 52.7044 5.95ZM51.9484 14H53.4604V7H51.9484V14ZM58.898 6.818C57.946 6.818 57.19 7.168 56.728 7.896V7H55.216V14H56.728V10.248C56.728 8.82 57.512 8.232 58.506 8.232C59.458 8.232 60.074 8.792 60.074 9.856V14H61.586V9.702C61.586 7.882 60.466 6.818 58.898 6.818ZM68.786 7V8.036C68.254 7.28 67.428 6.818 66.35 6.818C64.376 6.818 62.822 8.428 62.822 10.43C62.822 12.432 64.376 14.042 66.35 14.042C67.428 14.042 68.254 13.58 68.786 12.824V13.678C68.786 14.896 68.002 15.61 66.7 15.61C65.482 15.61 64.964 15.134 64.656 14.532L63.354 15.288C63.942 16.408 65.132 16.982 66.672 16.982C68.506 16.982 70.27 15.932 70.27 13.678V7H68.786ZM66.56 12.628C65.286 12.628 64.334 11.69 64.334 10.43C64.334 9.17 65.286 8.232 66.56 8.232C67.834 8.232 68.786 9.17 68.786 10.43C68.786 11.69 67.834 12.628 66.56 12.628Z" fill="white"/>
<defs>
<linearGradient id="paint0_linear_7537_113778" x1="1.80998e-06" y1="8.49999" x2="81.0938" y2="9.58709" gradientUnits="userSpaceOnUse">
<stop stop-color="#49A078"/>
<stop offset="1" stop-color="#1D704A"/>
</linearGradient>
</defs>
</svg>
 